<svg xmlns="http://www.w3.org/2000/svg" viewBox="0 0 168 139"><defs><style>.cls-1{fill:none;}.cls-2{fill:#333;}</style></defs><title>adoption_birth-parent</title><g id="Layer_2" data-name="Layer 2"><g id="Layer_1-2" data-name="Layer 1"><rect class="cls-1" width="168" height="139"/><path class="cls-2" d="M86,113H62.58c-2,0-2.14-.4-1.53-2.27.85-2.62,1.53-5.29,2.28-7.94.6-2.12,1.21-4.23,1.81-6.35.79-2.79,1.55-5.58,2.34-8.37.47-1.66,1-3.32,1.46-5,1.18-4,2.38-8,3.55-12,.45-1.53.87-3.07,1.19-4.63a1.27,1.27,0,0,0-.66-1c-1.63-.52-2.52-.18-3.11,1.4-.85,2.27-1.55,4.6-2.24,6.93q-2,6.72-3.87,13.48c-.61,2.16-1.21,4.33-1.67,6.52-.42,2-1.31,3.58-3.33,4.14a4.86,4.86,0,0,1-5.8-2c-1-1.61-.6-3.34-.11-5,.78-2.74,1.51-5.49,2.29-8.24.45-1.57.94-3.13,1.41-4.7l3.63-12.24c.51-1.7,1.09-3.39,1.51-5.11a14.74,14.74,0,0,1,5.49-8.23,11.53,11.53,0,0,1,7.25-2.65c7.66,0,15.33-.13,23,0,5.31.12,9,3.08,11.39,7.68,2.05,3.89,2.92,8.16,4,12.36.61,2.3,1.42,4.55,2.11,6.83.5,1.66,1,3.32,1.44,5,.63,2.35,1.2,4.71,1.83,7.05.19.72.48,1.42.73,2.12.62,1.77,1,3.55-.15,5.26-1.35,2-3.34,2.34-5.5,2-1.94-.35-2.89-1.82-3.42-3.56-.84-2.77-1.62-5.56-2.39-8.36-.66-2.39-1.24-4.8-1.91-7.18s-1.38-4.66-2.09-7c-.54-1.79-1-3.59-1.68-5.35a2.48,2.48,0,0,0-3.4-1,1.28,1.28,0,0,0-.21,1.1c1.23,4.61,2.51,9.21,3.78,13.81.91,3.29,1.79,6.59,2.76,9.86,1.13,3.81,2.39,7.57,3.51,11.38.68,2.33,1.18,4.72,1.81,7.06.22.81.61,1.56.9,2.35.53,1.45.26,1.89-1.3,1.89q-11.85,0-23.7,0Zm0-35.69c-8.8-.42-16.18,7-16.26,15.94a16.17,16.17,0,1,0,32.32.21C102.08,84.68,94.84,77,86,77.31Z"/><path class="cls-2" d="M85.93,24c6.52-.35,11.22,5.45,11.16,11A11,11,0,0,1,86,46.22,11.2,11.2,0,0,1,74.68,35C74.65,29.78,79.4,23.56,85.93,24Z"/><path class="cls-2" d="M93.43,94.47c-.4.95-.86,2.27-1.49,3.51a42,42,0,0,1-2.41,4.24,4.25,4.25,0,0,1-4.46,1.72,4.6,4.6,0,0,1-4-3.27c-.5-1.53-1.35-1.74-2.75-.82a6.19,6.19,0,0,1-2.4,1,1.86,1.86,0,0,1-1.59-.74,2.09,2.09,0,0,1,.2-1.92,41.1,41.1,0,0,1,5.81-3.87c.45-.24,1.55.69,2.32,1.13.61.35,1.18.79,1.77,1.19.33-.53.9-1,.94-1.59a5.86,5.86,0,0,0-.57-2,.19.19,0,0,0-.11-.08c-2.12-.76-2.32-2.94-3.29-4.52a1.76,1.76,0,0,1,.57-2.49,1.6,1.6,0,0,1,2.39.7c.17.28.52.47.61.76.86,2.64,3.2,3,5.41,3.56A3.57,3.57,0,0,1,93.43,94.47Z"/><path class="cls-2" d="M90.78,89.86a4.1,4.1,0,0,1-3.72-4.07c0-1.78,2.25-3.92,4.11-3.94a4.18,4.18,0,0,1,3.93,4A3.87,3.87,0,0,1,90.78,89.86Z"/></g></g></svg>