<svg xmlns="http://www.w3.org/2000/svg" viewBox="0 0 168 139"><defs><style>.cls-1{fill:none;}.cls-2{fill:#333;}</style></defs><title>adoption_adoptive-parent</title><g id="Layer_2" data-name="Layer 2"><g id="Layer_1-2" data-name="Layer 1"><rect class="cls-1" width="168" height="139"/><path class="cls-2" d="M121.86,72.31c.19,3.73-1,7.16-2.35,10.62-2.57,6.75-7.28,11.8-12.74,16.18s-11.31,8.56-17,12.83a17.39,17.39,0,0,1-2.25,1.8,2.35,2.35,0,0,1-2,.07c-3.54-2.5-7-5.11-10.49-7.7-5.86-4.36-11.73-8.72-16.38-14.42a33.86,33.86,0,0,1-6.36-12.07,25.39,25.39,0,0,1-.91-10.47,18.25,18.25,0,0,1,7.67-12.79,18,18,0,0,1,10.48-3.72c6.67,0,12.18,2.59,15.77,8.52.7,1.15,1.73,1.09,2.44-.1a16.13,16.13,0,0,1,6.52-6.17,18.67,18.67,0,0,1,8.13-2.29,20,20,0,0,1,8.63,2.1,17.39,17.39,0,0,1,6.71,5.36A18,18,0,0,1,121.86,72.31Zm-44.62,4c-2.84-.42-5.22,3.16-4.52,5.12a8.37,8.37,0,0,0,1.79,2.93c3.59,3.7,7.27,7.32,10.94,11a4.7,4.7,0,0,0,5.4.12c2.3-2,2.2-5.17-.19-7.5C88.7,86,86.81,84,84.8,82.09c-1-.91-.74-1.66-.06-2.5.24-.3.57-.53.83-.81,1.18-1.27,2.45-2.49,3.5-3.86a2,2,0,0,0-.17-2.8A1.75,1.75,0,0,0,86.32,72c-1.37,1.22-2.67,2.49-4,3.73-1,.87-1.83,1.89-3.35.89A4.43,4.43,0,0,0,77.24,76.28ZM74,70.84c.15-4.24-2.67-6.25-6.06-6.56s-6.42,2.78-6.65,6a6.66,6.66,0,0,0,6.52,6.91A6.14,6.14,0,0,0,74,70.84Z"/><path class="cls-2" d="M86.6,22.77c7.78-.34,14.06,7.26,14,14C100.52,44.32,94,51,86.39,50.89A14.27,14.27,0,0,1,72.5,36.65C72.5,29.71,78.61,22.49,86.6,22.77Z"/></g></g></svg>