<svg xmlns="http://www.w3.org/2000/svg" viewBox="0 0 168 139"><defs><style>.cls-1{fill:none;}.cls-2{fill:#fff;stroke:#333;stroke-miterlimit:10;stroke-width:2px;}</style></defs><title>after_1</title><g id="Layer_2" data-name="Layer 2"><g id="Layer_1-2" data-name="Layer 1"><rect class="cls-1" width="168" height="139"/><path class="cls-2" d="M42.07,120.28c.42-.14.72-.23,1-.33,8.47-3.16,16.94-6.33,25.43-9.46a1.36,1.36,0,0,0,1.07-1.54q0-39.83,0-79.65a1.37,1.37,0,0,0-1.06-1.56c-8.37-3.08-16.72-6.2-25.08-9.31l-1.37-.49ZM119.9,64.14a8,8,0,0,1,.43,1,7.93,7.93,0,0,0,3.6,5,4.24,4.24,0,0,1,.37.3c2.66,2.16,5.31,4.33,8,6.46a3.39,3.39,0,0,0,5.53-1.46,3.55,3.55,0,0,0-1.46-4.06c-2.8-2.28-5.63-4.54-8.41-6.85A3.93,3.93,0,0,1,126.83,63c-1.48-3.87-2.89-7.77-4.32-11.66-1.75-4.75-5.92-6.59-10.61-4.68s-9.13,3.71-13.67,5.64A6.18,6.18,0,0,0,96,54c-2.25,2.67-4.39,5.43-6.59,8.13-.84,1-1.66,2.06-1.54,3.47-1.72.4-2,.8-2,2.48,0,.74,0,1.48,0,2.3H82.37v20.8H94.9c-.32.35-.49.56-.68.75L86,100.33a4.88,4.88,0,0,0-.08,7.08,4.74,4.74,0,0,0,6.9-.34c3.53-3.59,7.07-7.16,10.53-10.82A8.12,8.12,0,0,0,105,93.39c1.06-3.09,2-6.23,2.93-9.34.11-.37.26-.73.39-1.09l-.14.25q4.46,4.27,8.93,8.54a1.85,1.85,0,0,1,.62,1.48c0,5.1,0,10.19,0,15.29a4.94,4.94,0,0,0,1.62,4,4.52,4.52,0,0,0,5,.82,4.69,4.69,0,0,0,2.94-4.65q0-8.92,0-17.83a4.82,4.82,0,0,0-1.43-3.48q-4.7-4.84-9.36-9.72a1.33,1.33,0,0,1-.38-1C117.35,72.51,118.6,68.43,119.9,64.14Zm-1.43-19.82a7.19,7.19,0,0,0,.06-14.38,7.19,7.19,0,1,0-.06,14.38ZM80.71,91V70.27c-.89,0-1.7,0-2.51,0a3.14,3.14,0,0,0-3.33,3.39c0,2.51,0,5,0,7.54,0,2.26,0,4.52,0,6.79a2.89,2.89,0,0,0,2.83,3C78.67,91.11,79.64,91,80.71,91Zm18.82,0H98V70.36H94.39c0-1.21,0-2.3,0-3.38,0-.21.23-.43.38-.62q3-3.67,5.93-7.33a1.84,1.84,0,0,1,.62-.55c1.69-.73,3.39-1.43,5.23-2.21-1,3.23-1.92,6.31-2.87,9.39-.4,1.32-.85,2.63-1.22,4-.15.55-.39.78-1,.74s-1.24,0-2,0ZM92.84,70.29H87.48V67.16a5.7,5.7,0,0,1,1.48.59,3.62,3.62,0,0,0,3.88.58Z"/><path class="cls-2" d="M42.07,120.28V17.93l1.37.49c8.36,3.11,16.71,6.23,25.08,9.31a1.37,1.37,0,0,1,1.06,1.56q0,39.83,0,79.65a1.36,1.36,0,0,1-1.07,1.54c-8.49,3.12-17,6.3-25.43,9.46C42.79,120.05,42.49,120.14,42.07,120.28Z"/><path class="cls-2" d="M119.9,64.14c-1.3,4.28-2.55,8.36-3.75,12.46a1.33,1.33,0,0,0,.38,1q4.65,4.88,9.36,9.72a4.82,4.82,0,0,1,1.43,3.48q0,8.92,0,17.83a4.69,4.69,0,0,1-2.94,4.65,4.52,4.52,0,0,1-5-.82,4.94,4.94,0,0,1-1.62-4c0-5.1,0-10.19,0-15.29a1.85,1.85,0,0,0-.62-1.48q-4.48-4.25-8.93-8.54l.14-.25c-.13.36-.27.72-.39,1.09-1,3.12-1.87,6.26-2.93,9.34a8.12,8.12,0,0,1-1.72,2.86c-3.46,3.65-7,7.22-10.53,10.82a4.74,4.74,0,0,1-6.9.34,4.88,4.88,0,0,1,.08-7.08l8.25-8.43c.19-.19.37-.4.68-.75H82.37V70.35h3.46c0-.82,0-1.56,0-2.3,0-1.68.32-2.08,2-2.48-.12-1.41.7-2.44,1.54-3.47,2.2-2.71,4.34-5.47,6.59-8.13a6.18,6.18,0,0,1,2.22-1.65c4.53-1.93,9.11-3.78,13.67-5.64s8.86-.07,10.61,4.68c1.43,3.89,2.85,7.78,4.32,11.66a3.93,3.93,0,0,0,1.12,1.55c2.78,2.31,5.61,4.57,8.41,6.85a3.55,3.55,0,0,1,1.46,4.06,3.39,3.39,0,0,1-5.53,1.46c-2.68-2.13-5.33-4.31-8-6.46a4.24,4.24,0,0,0-.37-.3,7.93,7.93,0,0,1-3.6-5A8,8,0,0,0,119.9,64.14ZM99.52,91V70.34c.75,0,1.37,0,2,0s.82-.18,1-.74c.37-1.33.81-2.64,1.22-4,.94-3.08,1.88-6.16,2.87-9.39-1.84.77-3.54,1.47-5.23,2.21a1.84,1.84,0,0,0-.62.55q-3,3.66-5.93,7.33c-.15.19-.38.41-.38.62,0,1.09,0,2.17,0,3.38H98V91ZM92.84,70.29v-2A3.62,3.62,0,0,1,89,67.75a5.7,5.7,0,0,0-1.48-.59v3.13Z"/><path class="cls-2" d="M118.47,44.32a7.19,7.19,0,1,1,.06-14.38,7.19,7.19,0,0,1-.06,14.38Z"/><path class="cls-2" d="M80.71,91c-1.07,0-2,.06-3,0a2.89,2.89,0,0,1-2.83-3c0-2.26,0-4.52,0-6.79,0-2.51,0-5,0-7.54a3.14,3.14,0,0,1,3.33-3.39c.81,0,1.62,0,2.51,0Z"/></g></g></svg>