<svg xmlns="http://www.w3.org/2000/svg" viewBox="0 0 168 139"><defs><style>.cls-1{fill:none;}.cls-2{fill:#fff;stroke:#333;stroke-miterlimit:10;stroke-width:2px;}</style></defs><title>before_1</title><g id="Layer_2" data-name="Layer 2"><g id="Layer_1-2" data-name="Layer 1"><rect class="cls-1" width="168" height="139"/><path class="cls-2" d="M113.06,19.49a4,4,0,0,0-.64,0c-7.77,2-15.53,4-23.31,6-1.29.32-1.3,1-1.3,2q0,39.06,0,78.13a1.86,1.86,0,0,0,1.52,2.11c5.62,1.85,11.17,3.91,16.82,5.64,2.16.66,4.53.65,6.93,1ZM49.45,57.43a10.58,10.58,0,0,1-.1,1.11c-2.54,10.54-4.43,21.21-6,31.93a10.41,10.41,0,0,1-1.52,3.84c-3,4.87-6.21,9.66-9.32,14.5a9.59,9.59,0,0,0-1.2,2.33,3.64,3.64,0,0,0,1,4,2.8,2.8,0,0,0,3.58.32,9.43,9.43,0,0,0,2.62-2.5c2.83-4.17,5.4-8.52,8.34-12.61a22.35,22.35,0,0,0,4.1-11.22c.25-2.53.81-5,1.23-7.5a5.9,5.9,0,0,1,4.37,2.41c2.91,3.61,6,7.07,8.87,10.69a8.73,8.73,0,0,1,1.58,3.4c1.09,4.74,2,9.51,3,14.26.56,2.57,2.39,4,4.43,3.48s3.22-2.55,2.68-5.15c-1.07-5.1-2.06-10.22-3.26-15.3a11.16,11.16,0,0,0-2-4.18,93.27,93.27,0,0,0-8-9.37c-2.87-2.8-3.81-5.62-2.45-9.47a75.69,75.69,0,0,0,2-8.63,20.56,20.56,0,0,1,2.81,4.76,6,6,0,0,0,3.48,3.25c2.93,1.19,5.81,2.5,8.71,3.76,2,.87,3.64.36,4.43-1.38s.09-3.12-1.93-4c-2.67-1.2-5.34-2.42-8-3.52a4.2,4.2,0,0,1-2.45-2.28c-2-4.2-4-8.34-6-12.5-1.54-3.16-4.33-4.72-7.74-4a16.26,16.26,0,0,0-4.14,1.78c-4.78,2.5-9.57,5-14.26,7.63a5.39,5.39,0,0,0-2.52,2.86c-1,4-1.68,8.14-2.39,12.24-.35,2,.63,3.44,2.32,3.71s3.21-.73,3.6-2.76c.63-3.28,1.18-6.57,1.84-9.84A3.14,3.14,0,0,1,42,61.52C44.31,60.11,46.76,58.88,49.45,57.43Zm66.44-38.78V113.8h4.51V13.89H57.14V31.58l4.58-1.29V18.66Zm-54,13.72a7.22,7.22,0,0,0-.11,14.44,7.31,7.31,0,0,0,7.28-7.27A7.21,7.21,0,0,0,61.94,32.38ZM57.2,87.94v26h4.2a3,3,0,0,0,.15-.61q0-9.57,0-19.14A2,2,0,0,0,61.29,93C60,91.39,58.74,89.83,57.2,87.94ZM89.54,68.72c.78-1,1.28-2.36,1.93-2.44,1.37-.17,1.45,1.27,1.49,2.27s-.05,2.51-1.43,2.51C90.93,71,90.35,69.71,89.54,68.72Z"/><path class="cls-2" d="M113.06,19.49v94.89c-2.4-.31-4.77-.3-6.93-1-5.65-1.73-11.2-3.79-16.82-5.64a1.86,1.86,0,0,1-1.52-2.11q.06-39.06,0-78.13c0-1,0-1.71,1.3-2,7.78-1.93,15.54-4,23.31-6A4,4,0,0,1,113.06,19.49ZM89.54,68.72c.81,1,1.39,2.33,2,2.33,1.38,0,1.48-1.42,1.43-2.51s-.12-2.44-1.49-2.27C90.82,66.36,90.32,67.68,89.54,68.72Z"/><path class="cls-2" d="M49.45,57.43c-2.69,1.44-5.14,2.68-7.49,4.09A3.14,3.14,0,0,0,41,63.47c-.66,3.27-1.21,6.56-1.84,9.84-.39,2-1.77,3-3.6,2.76s-2.67-1.68-2.32-3.71c.71-4.1,1.39-8.21,2.39-12.24a5.39,5.39,0,0,1,2.52-2.86c4.69-2.65,9.48-5.14,14.26-7.63a16.26,16.26,0,0,1,4.14-1.78c3.42-.68,6.2.87,7.74,4,2,4.16,4.1,8.3,6,12.5a4.2,4.2,0,0,0,2.45,2.28c2.71,1.1,5.38,2.32,8,3.52,2,.91,2.69,2.34,1.93,4s-2.44,2.26-4.43,1.38c-2.9-1.27-5.78-2.57-8.71-3.76a6,6,0,0,1-3.48-3.25,20.56,20.56,0,0,0-2.81-4.76,75.69,75.69,0,0,1-2,8.63c-1.35,3.85-.42,6.67,2.45,9.47a93.27,93.27,0,0,1,8,9.37,11.16,11.16,0,0,1,2,4.18c1.2,5.07,2.2,10.19,3.26,15.3.54,2.6-.53,4.66-2.68,5.15S70.54,115,70,112.42c-1-4.75-2-9.52-3-14.26a8.73,8.73,0,0,0-1.58-3.4c-2.89-3.62-6-7.09-8.87-10.69a5.9,5.9,0,0,0-4.37-2.41c-.42,2.48-1,5-1.23,7.5a22.35,22.35,0,0,1-4.1,11.22c-2.94,4.09-5.51,8.44-8.34,12.61a9.43,9.43,0,0,1-2.62,2.5,2.8,2.8,0,0,1-3.58-.32,3.64,3.64,0,0,1-1-4,9.59,9.59,0,0,1,1.2-2.33c3.1-4.84,6.27-9.63,9.32-14.5a10.41,10.41,0,0,0,1.52-3.84c1.6-10.72,3.49-21.39,6-31.93A10.58,10.58,0,0,0,49.45,57.43Z"/><path class="cls-2" d="M115.89,18.66H61.72V30.29l-4.58,1.29V13.89h63.25V113.8h-4.51Z"/><path class="cls-2" d="M61.94,32.38a7.21,7.21,0,0,1,7.18,7.16,7.22,7.22,0,1,1-14.44-.1A7.19,7.19,0,0,1,61.94,32.38Z"/><path class="cls-2" d="M57.2,87.94c1.54,1.89,2.85,3.44,4.09,5a2,2,0,0,1,.28,1.16q0,9.57,0,19.14a3,3,0,0,1-.15.61H57.2Z"/></g></g></svg>