<svg xmlns="http://www.w3.org/2000/svg" viewBox="0 0 168 124"><defs><style>.cls-1,.cls-3{fill:none;}.cls-2{fill:#333;}.cls-3{stroke:#333;stroke-miterlimit:10;stroke-width:4px;}</style></defs><title>checklist</title><g id="Layer_2" data-name="Layer 2"><g id="Layer_1-2" data-name="Layer 1"><rect class="cls-1" width="168" height="124"/><path class="cls-2" d="M124.45,30.7H73.17a.21.21,0,0,0-.2.2v4.8a.21.21,0,0,0,.2.2h51.28a.21.21,0,0,0,.2-.2V30.9A.2.2,0,0,0,124.45,30.7Z"/><circle class="cls-3" cx="54.48" cy="65.84" r="6.43"/><circle class="cls-3" cx="54.48" cy="94.04" r="6.47"/><path class="cls-2" d="M73.31,44.6h41.34c.17,0,.35-.08.35-.2v-4.8c0-.1-.14-.2-.35-.2H73.31c-.17,0-.35.08-.35.2v4.8A.34.34,0,0,0,73.31,44.6Z"/><path class="cls-2" d="M124.45,58.9H73.17a.21.21,0,0,0-.2.2v4.8a.21.21,0,0,0,.2.2h51.28a.21.21,0,0,0,.2-.2V59.1A.2.2,0,0,0,124.45,58.9Z"/><path class="cls-2" d="M73.22,72.8h30.52a.24.24,0,0,0,.26-.2v-4.8a.24.24,0,0,0-.26-.2H73.22a.24.24,0,0,0-.26.2v4.8A.27.27,0,0,0,73.22,72.8Z"/><path class="cls-2" d="M124.45,87.09H73.17a.21.21,0,0,0-.2.2v4.8a.21.21,0,0,0,.2.2h51.28a.21.21,0,0,0,.2-.2v-4.8A.2.2,0,0,0,124.45,87.09Z"/><path class="cls-2" d="M114.65,95.79H73.31c-.17,0-.35.08-.35.2v4.8c0,.1.14.2.35.2h41.34c.17,0,.35-.08.35-.2V96C115,95.88,114.86,95.79,114.65,95.79Z"/><polygon class="cls-2" points="51.41 37.54 46.98 33.08 42.35 37.69 46.8 42.14 51.4 46.77 56.01 42.17 66.62 31.63 62.02 27 51.41 37.54"/></g></g></svg>