<svg xmlns="http://www.w3.org/2000/svg" viewBox="0 0 168 124"><defs><style>.cls-1{fill:none;}.cls-2{fill:#fff;stroke:#333;stroke-miterlimit:10;stroke-width:2px;}</style></defs><title>checklist_1</title><g id="Layer_2" data-name="Layer 2"><g id="Layer_1-2" data-name="Layer 1"><rect class="cls-1" width="168" height="124"/><path class="cls-2" d="M124.45,26.7H73.17a.21.21,0,0,0-.2.2v4.8a.21.21,0,0,0,.2.2h51.28a.21.21,0,0,0,.2-.2V26.9A.2.2,0,0,0,124.45,26.7Z"/><circle class="cls-2" cx="54.48" cy="61.84" r="6.43"/><circle class="cls-2" cx="54.48" cy="90.04" r="6.47"/><path class="cls-2" d="M73.31,40.6h41.34c.17,0,.35-.08.35-.2v-4.8c0-.1-.14-.2-.35-.2H73.31c-.17,0-.35.08-.35.2v4.8A.34.34,0,0,0,73.31,40.6Z"/><path class="cls-2" d="M124.45,54.9H73.17a.21.21,0,0,0-.2.2v4.8a.21.21,0,0,0,.2.2h51.28a.21.21,0,0,0,.2-.2V55.1A.2.2,0,0,0,124.45,54.9Z"/><path class="cls-2" d="M73.22,68.8h30.52a.24.24,0,0,0,.26-.2v-4.8a.24.24,0,0,0-.26-.2H73.22a.24.24,0,0,0-.26.2v4.8A.27.27,0,0,0,73.22,68.8Z"/><path class="cls-2" d="M124.45,83.09H73.17a.21.21,0,0,0-.2.2v4.8a.21.21,0,0,0,.2.2h51.28a.21.21,0,0,0,.2-.2v-4.8A.2.2,0,0,0,124.45,83.09Z"/><path class="cls-2" d="M114.65,91.79H73.31c-.17,0-.35.08-.35.2v4.8c0,.1.14.2.35.2h41.34c.17,0,.35-.08.35-.2V92C115,91.88,114.86,91.79,114.65,91.79Z"/><polygon class="cls-2" points="51.41 33.54 46.98 29.07 42.35 33.69 46.8 38.14 51.4 42.77 56.01 38.17 66.62 27.63 62.02 23 51.41 33.54"/></g></g></svg>