<svg xmlns="http://www.w3.org/2000/svg" viewBox="0 0 168 139"><defs><style>.cls-1{fill:none;}.cls-2{fill:#fff;stroke:#333;stroke-miterlimit:10;stroke-width:2px;}</style></defs><title>childSupport-1</title><g id="Layer_2" data-name="Layer 2"><g id="Layer_1-2" data-name="Layer 1"><rect class="cls-1" width="168" height="139"/><path class="cls-2" d="M87.31,79.41A27.24,27.24,0,0,1,60.17,51.76C60.19,37.13,72.47,25,87.31,25a27.21,27.21,0,1,1,0,54.41ZM88.73,39.3a5,5,0,0,1,3.68,3.2c.2.5.32,1,.56,1.52a2.87,2.87,0,0,0,5.42-1.33,6.39,6.39,0,0,0-.57-2.27A9.3,9.3,0,0,0,90,34.87c-1.07-.11-1.33-.52-1.24-1.47a16.43,16.43,0,0,0,0-2.12,1.29,1.29,0,0,0-1.33-1.36A1.32,1.32,0,0,0,86,31.35c0,.25,0,.5,0,.75,0,2.45,0,2.45-2.38,3-4.55,1-7.31,4.05-7.52,8.57-.17,3.74.93,7.12,6,9.15,1.26.5,2.55.93,3.79,1.39V65A5.9,5.9,0,0,1,82,61.8c-.44-.94-.74-1.94-1.12-2.9a2.68,2.68,0,0,0-2.82-1.81,2.82,2.82,0,0,0-2.73,2,5.78,5.78,0,0,0,0,2.58c1.1,4.15,4,6.44,8,7.58.83.24,1.68.36,2.58.55,0,1,0,1.9,0,2.81s.23,1.76,1.34,1.87c.9.09,1.4-.64,1.41-1.92,0-.91,0-1.82,0-2.69,1.43-.38,2.78-.65,4.06-1.1a9.75,9.75,0,0,0,6.72-9.51c0-4.21-2.31-7.46-6.56-9-1.13-.41-2.3-.72-3.42-1.15-.31-.12-.76-.49-.76-.75C88.71,45.37,88.73,42.39,88.73,39.3Z"/><path class="cls-2" d="M63.31,84.22a17,17,0,0,0-5-6.07,6.08,6.08,0,0,1-2.61-4.35c-.13-1.26,0-2.46,1.24-3.15A3,3,0,0,1,60.5,71c1.79,1.54,3.42,3.28,5.25,4.79s4,3.09,6.07,4.52c1.54,1.06,3.21,1.92,4.81,2.89a15.79,15.79,0,0,1,7.62,11.69,50.44,50.44,0,0,1-.34,15.27,1.24,1.24,0,0,1-1.42,1.21q-4.93-.06-9.86,0c-1.07,0-1.39-.57-1.43-1.46-.06-1.37,0-2.75-.15-4.11-.38-4.21-2.79-6.9-6.43-8.84-3.25-1.74-6.39-3.7-9.47-5.74a11.18,11.18,0,0,1-2.61-2.93c-1.26-1.76-2.26-3.7-3.6-5.39a23.07,23.07,0,0,1-4.7-13.8,54.27,54.27,0,0,1,0-6.58c.16-2,1.23-3.18,2.52-3.27s2.27.88,2.7,3a36,36,0,0,1,.71,6,11.28,11.28,0,0,0,1.67,5.66c1.27,2,2.57,4.09,4,6A9.64,9.64,0,0,0,63.31,84.22Z"/><path class="cls-2" d="M111.34,84.23a9.49,9.49,0,0,0,7.29-4c1.54-2.11,2.93-4.34,4.31-6.56a11.15,11.15,0,0,0,1.54-5.7,34.13,34.13,0,0,1,.78-6c.38-1.79,1.44-2.7,2.56-2.66s2.23,1.16,2.58,3c.65,3.37-.06,6.71-.29,10.06-.28,4.18-2.28,7.57-4.56,10.88-1.34,2-2.53,4-3.87,6a7.3,7.3,0,0,1-2,2c-3.19,2-6.35,4.12-9.7,5.84a11.23,11.23,0,0,0-6.46,11c0,.17.06.33.06.49.11,2.51-.23,2.87-2.73,2.87-2.87,0-5.74,0-8.61,0a1.23,1.23,0,0,1-1.45-1.16c-1-6.25-1.37-12.47.45-18.66A14.35,14.35,0,0,1,96.88,84a19.44,19.44,0,0,1,3-2,41.83,41.83,0,0,0,12.15-9.22A15.3,15.3,0,0,1,114.23,71a3.1,3.1,0,0,1,3.62-.29c1.21.73,1.33,2,1.17,3.2A5.88,5.88,0,0,1,116.55,78,17.51,17.51,0,0,0,111.34,84.23Z"/><path class="cls-2" d="M88.79,55.07c3.63.83,5.21,2.58,5,5.41a5.16,5.16,0,0,1-5,4.58Z"/><path class="cls-2" d="M85.91,48c-3.07-.85-4.39-2.47-4.1-5a4.3,4.3,0,0,1,4.1-3.68Z"/></g></g></svg>