<svg xmlns="http://www.w3.org/2000/svg" viewBox="0 0 168 139"><defs><style>.cls-1{fill:none;}.cls-2{fill:#fff;stroke:#333;stroke-miterlimit:10;stroke-width:2px;}</style></defs><title>childCustody-1</title><g id="Layer_2" data-name="Layer 2"><g id="Layer_1-2" data-name="Layer 1"><rect class="cls-1" width="168" height="139"/><path class="cls-2" d="M93.58,71.18c-2.1.69-2.49.57-3.8-1.42-2.8-4.22-5.58-8.45-8.38-12.67-.24-.37-.53-.7-1-1.37,0,.91-.09,1.41-.1,1.91,0,4.17-.23,8.35,0,12.51a69.41,69.41,0,0,0,1.31,8.54q2.49,14.12,5,28.22a2.54,2.54,0,0,0,.12.55c1.09,2.54-.43,4.56-3.46,4.73-1.56.09-2.27-.36-2.66-2.09-.64-2.86-1.18-5.75-1.73-8.63q-1.78-9.2-3.54-18.4c-.07-.37-.2-.72-.27-1H70.35c-.22,1.79-.47,3.69-.69,5.6-.84,7.15-1.63,14.3-2.53,21.44-.37,3-2.29,4-5.11,2.92a2.35,2.35,0,0,1-1.44-2.54c.15-2.5.3-5,.58-7.5.8-7.1,1.64-14.2,2.5-21.3.44-3.62,1.13-7.21.67-10.88-.09-.72.17-1.06.88-1.34,3-1.19,4.6-3.53,4.37-6.26a6.6,6.6,0,0,0-5.39-6.15c-.9-.2-1.26-.56-1.26-1.51,0-2.27-.12-4.55-.1-6.82,0-2.91,1.3-4.14,4.18-4.14H78.11a4.89,4.89,0,0,1,4.61,2.5c4,6.82,8,13.61,12,20.44C96,68.79,95.87,69.22,94,70.7Z"/><path class="cls-2" d="M93.58,71.18,94,70.7a3.28,3.28,0,0,1,3.5.86c1.69,1.51,3.58,2.82,5.21,4.39a5.79,5.79,0,0,0,4.74,1.68,5.46,5.46,0,0,1,5,2.14c2,2.35,4.19,4.51,6.33,6.72a2.88,2.88,0,0,1,1,2.95c-.22.68-.74,1.56-1.31,1.73a2.7,2.7,0,0,1-2.27-.49c-1.56-1.49-2.93-3.19-4.38-4.81l-.6.44a22.13,22.13,0,0,1,.58,3,52.62,52.62,0,0,1,.24,7.49,11.48,11.48,0,0,0,3.75,10.09,11.56,11.56,0,0,1,1.13,1.28,2.35,2.35,0,0,1,.19,3.12,2.24,2.24,0,0,1-3.19.45c-3.19-2.25-5.81-5-6.92-8.89-.39-1.36-.61-2.77-.95-4.38-1.19,1.66-2.14,3.21-2.16,5.17s0,4-.08,6-.9,2.89-2.69,2.49a4.65,4.65,0,0,1-2-1.52,2.25,2.25,0,0,1-.33-1.35c-.2-5.63,0-11.17,3-16.23a5.87,5.87,0,0,0,.41-2.2c.27-2.21.58-4.41.73-6.63a2.51,2.51,0,0,0-.74-1.75c-2.76-2.59-5.62-5.08-8.39-7.66C92.43,73.48,92.44,72.62,93.58,71.18Z"/><path class="cls-2" d="M61.16,56.63a30.43,30.43,0,0,1,3.49,1A5.07,5.07,0,0,1,68,62.32c.11,2.27-1.17,3.73-3,4.81-4.89,2.94-13.38,2.37-16.61-5.23a21,21,0,0,1-1.51-11.54c.34-2.25,1.05-2.81,3.28-2.81h7.39c2.07,0,2.94.62,3.26,2.72.25,1.67.21,3.39.3,5.09C61.18,55.78,61.16,56.21,61.16,56.63Z"/><path class="cls-2" d="M72.08,25a8.67,8.67,0,1,1-8.66,8.67A8.69,8.69,0,0,1,72.08,25Z"/><path class="cls-2" d="M53.44,46.48a6.37,6.37,0,1,1,6.37-6.27A6.34,6.34,0,0,1,53.44,46.48Z"/><path class="cls-2" d="M113.83,69.94a6.37,6.37,0,0,1-6.4,6.27,6.44,6.44,0,0,1-6.33-6.52,6.37,6.37,0,0,1,12.74.24Z"/></g></g></svg>