<svg xmlns="http://www.w3.org/2000/svg" viewBox="0 0 168 139"><defs><style>.cls-1{fill:none;}.cls-2{fill:#fff;stroke:#333;stroke-miterlimit:10;stroke-width:2px;}</style></defs><title>divorce-1</title><g id="Layer_2" data-name="Layer 2"><g id="Layer_1-2" data-name="Layer 1"><rect class="cls-1" width="168" height="139"/><path class="cls-2" d="M51.64,89.79c4.58,0,9.08,0,13.58,0,3.91,0,7.82.14,11.72.05,1.64,0,2.49.34,2.52,2.11,0,3,.48,6,.21,9A8.27,8.27,0,0,1,75,107.49a34.85,34.85,0,0,1-12.81,3.57,62.7,62.7,0,0,1-23.91-1.49c-.75-.2-1.5-.45-2.23-.72-6-2.26-8.13-5.52-7.86-11.86.43-10.13,3.5-19.27,10.44-26.87a26.15,26.15,0,0,1,9.32-6.67,14.82,14.82,0,0,1,11.58-.21C68.86,67,74,74.41,77.55,83.63h-26a12.06,12.06,0,0,1,.8-1c2.48-2.5,5-5,7.45-7.47,1.57-1.59,1.66-3.23.32-4.56s-3-1.24-4.55.34Q48.94,77.54,42.33,84.2c-1.74,1.76-1.67,3.1.09,4.86Q48.71,95.33,55,101.62c.92.93,2,1.68,3.27,1a4.06,4.06,0,0,0,2-2.37,4.07,4.07,0,0,0-1.13-2.9c-2-2.19-4.17-4.19-6.27-6.28C52.43,90.67,52,90.21,51.64,89.79Z"/><path class="cls-2" d="M88.9,90h27.86L114,92.75c-1.9,1.9-3.82,3.77-5.69,5.69-1.46,1.5-1.47,3.08-.11,4.41s2.85,1.25,4.29-.18q7-7,14-14c1.33-1.34,1.16-3-.43-4.57-2.83-2.86-5.7-5.68-8.55-8.52-1.39-1.38-2.76-2.77-4.16-4.14s-3.14-1.53-4.43-.25-1.3,2.93.17,4.44c2.26,2.32,4.58,4.58,6.88,6.87.39.39.75.79,1.32,1.39H90.5c1.49-3,2.68-5.79,4.24-8.38a29.29,29.29,0,0,1,11.53-11.16,16,16,0,0,1,16.58.42c7.9,4.71,12.64,11.89,15.1,20.54a66.41,66.41,0,0,1,2,12.35c.48,5.53-2,9-7.2,10.89-7.2,2.66-14.68,3.26-22.26,2.86-5.42-.29-10.79-.92-15.83-3.17C90,106.18,88,103.17,88.23,98.14,88.33,95.42,88.67,92.72,88.9,90Z"/><path class="cls-2" d="M114.07,28.33a14,14,0,1,1-.1,27.93,14,14,0,0,1-13.8-14A13.88,13.88,0,0,1,114.07,28.33Z"/><path class="cls-2" d="M54.05,28.33A14,14,0,1,1,40.12,42.26,13.92,13.92,0,0,1,54.05,28.33Z"/></g></g></svg>