<svg xmlns="http://www.w3.org/2000/svg" viewBox="0 0 168 139"><defs><style>.cls-1{fill:none;}.cls-2{fill:#fff;stroke:#333;stroke-miterlimit:10;stroke-width:2px;}</style></defs><title>during_1</title><g id="Layer_2" data-name="Layer 2"><g id="Layer_1-2" data-name="Layer 1"><rect class="cls-1" width="168" height="139"/><path class="cls-2" d="M41,75.27V112h90.19V75.22h9.7V65.55H30.75v9.72Zm33-14H98.23V54h2.35v7.32h7.87c-.26-4.06-.19-8-.85-11.91-.95-5.47-4.73-8.73-10.26-8.89q-11.3-.33-22.62,0a10.24,10.24,0,0,0-10.29,8.9c-.54,3-.33,6.09-.45,9.14,0,.93,0,1.87,0,2.75H71.7V54H74ZM86.07,19.06a9.72,9.72,0,1,0,9.68,9.69A9.59,9.59,0,0,0,86.07,19.06Zm-45,29V61.57h6.07V56.21H60.47v-3H47.13V48.09Zm46.26,54.57h6.12v2.8H78v-2.77h6.22V75.38H74c.23.7.42,1.37.67,2C76.78,83,78.84,88.55,81,94.09a2.17,2.17,0,0,1-.7,2.79c-4.7,4.18-11.19,4.11-15.52-.18a2,2,0,0,1-.59-2.4q3.72-9.77,7.34-19.57a1.7,1.7,0,0,1,1.91-1.24c2.89,0,5.79-.09,8.68.05,1.77.09,2.54-.43,2.24-2.24a4.48,4.48,0,0,1,.08-1h2.7l.15,3.06c.58,0,1.13.1,1.68.11,2.16,0,4.31,0,6.47,0,5.15.09,3.76-.8,5.56,3.8,2.15,5.48,4.1,11,6.25,16.53a2.5,2.5,0,0,1-.82,3.23,11.1,11.1,0,0,1-15.28-.31,2,2,0,0,1-.59-2.52c2.18-5.65,4.27-11.34,6.39-17,.21-.57.4-1.16.64-1.88H87.34Zm-8.12-8.25L72.64,76.84,66,94.42Zm13.15,0h13.18L99,76.84Z"/><path class="cls-2" d="M41,75.27H30.75V65.55H140.86v9.67h-9.7V112H41Zm46.37,27.4V75.34H97.59c-.25.72-.43,1.31-.64,1.88-2.12,5.68-4.21,11.36-6.39,17a2,2,0,0,0,.59,2.52,11.1,11.1,0,0,0,15.28.31,2.5,2.5,0,0,0,.82-3.23c-2.15-5.48-4.11-11-6.25-16.53-1.8-4.61-.41-3.71-5.56-3.8-2.16,0-4.31,0-6.47,0-.55,0-1.09-.07-1.68-.11l-.15-3.06h-2.7a4.48,4.48,0,0,0-.08,1c.3,1.81-.47,2.32-2.24,2.24-2.89-.14-5.79,0-8.68-.05a1.7,1.7,0,0,0-1.91,1.24Q67.92,84.54,64.2,94.3a2,2,0,0,0,.59,2.4c4.33,4.29,10.82,4.36,15.52.18a2.17,2.17,0,0,0,.7-2.79C78.84,88.55,76.78,83,74.7,77.4c-.24-.65-.44-1.32-.67-2h10.2v27.31H78v2.77H93.46v-2.8Z"/><path class="cls-2" d="M74,61.29V54H71.7v7.3H64c0-.89,0-1.82,0-2.75.11-3.05-.1-6.16.45-9.14a10.24,10.24,0,0,1,10.29-8.9q11.3-.33,22.62,0c5.52.16,9.31,3.42,10.26,8.89.67,3.86.59,7.85.85,11.91h-7.87V54H98.23v7.32Z"/><path class="cls-2" d="M86.07,19.06a9.59,9.59,0,0,1,9.68,9.69,9.71,9.71,0,1,1-9.68-9.69Z"/><path class="cls-2" d="M41.08,48.09h6v5.08H60.47v3H47.15v5.36H41.08Z"/><path class="cls-2" d="M79.22,94.42,72.64,76.84,66,94.42Zm13.15,0h13.18L99,76.84Z"/><path class="cls-2" d="M79.22,94.42H66l6.59-17.58Z"/><path class="cls-2" d="M92.37,94.4,99,76.84l6.59,17.57Z"/></g></g></svg>