<svg xmlns="http://www.w3.org/2000/svg" viewBox="0 0 168 139"><defs><style>.cls-1{fill:#333;}.cls-2{fill:none;}</style></defs><title>dv_3</title><g id="Layer_2" data-name="Layer 2"><g id="Layer_1-2" data-name="Layer 1"><path class="cls-1" d="M98.69,73.85,86.42,92.43l18.34,26.43a3.34,3.34,0,0,0,5.21.32l11.61-12.86a3.34,3.34,0,0,0,.13-4.32Z"/><path class="cls-1" d="M104.07,57.78c-.29-4.34-1.6-20-5.63-29.17a3.37,3.37,0,0,0-1.06-1.34A23.25,23.25,0,0,0,84,22.72a23.25,23.25,0,0,0-13.39,4.56,3.35,3.35,0,0,0-1.06,1.34c-4,9.15-5.33,24.84-5.63,29.17a3.36,3.36,0,0,0,.56,2.08l4.25,6.37,12.18-16-4.61-6.49a2.23,2.23,0,0,1,1.24-3.44A24.34,24.34,0,0,1,84,39.59a24.27,24.27,0,0,1,6.29.68,2.23,2.23,0,0,1,1.21,3.53L84.37,53,46.3,102a3.32,3.32,0,0,0,.13,4.32L58,119.17a3.33,3.33,0,0,0,5.21-.32l40.29-59A3.32,3.32,0,0,0,104.07,57.78Z"/><rect class="cls-2" width="168" height="139"/></g></g></svg>