<svg xmlns="http://www.w3.org/2000/svg" viewBox="0 0 168 139"><defs><style>.cls-1{fill:none;}.cls-2{fill:#fff;stroke:#333;stroke-miterlimit:10;stroke-width:2px;}</style></defs><title>dv_1</title><g id="Layer_2" data-name="Layer 2"><g id="Layer_1-2" data-name="Layer 1"><rect class="cls-1" width="168" height="139"/><path class="cls-2" d="M95.43,87.54c7.75,6.17,16.15,8.11,25.37,7,7.35-.91,9.09.87,7.49,8.09-1.73,7.76-6.16,13.38-13.68,16.24-4.13,1.57-6.43.5-8.3-3.45-1.27-2.69-2.51-5.41-3.82-8.25-8.93,5.28-18,7.41-27.84,4.32C62.72,107.72,55,99.94,51.86,87.73,49.62,79,45.07,75.94,36.29,77.46c-1.58-6,2.18-11.68,8.87-13.12,8.75-1.88,17.16-.42,25.53,3.22,5.18-14,14.43-23.82,28.88-28.16,7.93-2.39,17.72-2.18,23.14.59-8.42,7.47-12.44,17.11-14.85,27.8C106.13,75.45,101.52,81.69,95.43,87.54Z"/><path class="cls-2" d="M68.83,63.36l-6.58-2c2-13.5,8.72-23.62,20.58-31.06.52,4.44,1,8.32,1.37,12.22a2.89,2.89,0,0,1-1.17,2A48.61,48.61,0,0,0,68.83,63.36Z"/></g></g></svg>