<svg xmlns="http://www.w3.org/2000/svg" viewBox="0 0 168 139"><defs><style>.cls-1{fill:none;}.cls-2{fill:#333;}</style></defs><title>dv_paa</title><g id="Layer_2" data-name="Layer 2"><g id="Layer_1-2" data-name="Layer 1"><rect class="cls-1" width="168" height="139"/><path class="cls-2" d="M113.72,82.4c-3.85,2.84-7.26,5.31-10.6,7.88a2.69,2.69,0,0,0-.77,1.83c-.1,2,0,4.08,0,6.13,0,2.4-.69,3.07-3.05,3.09-3.16,0-6.33-.07-9.49.05a5.53,5.53,0,0,0-2.87.95c-5.08,3.65-10.09,7.41-15.13,11.11-2.3,1.69-4.72,1.54-6.1-.35s-.85-4.18,1.49-5.94,4.77-3.51,7.49-5.5c-.9-.07-1.44-.14-2-.14q-9.69,0-19.38,0c-1.45,0-2.8,0-3.23-1.83-.07-.29-.69-.43-1-.69-.5-.39-1.2-.73-1.4-1.26A2.09,2.09,0,0,0,46,96.15c-.57-.15-1.06-1.06-1.35-1.73a4.64,4.64,0,0,1-.09-1.76q0-30.94,0-61.89c0-3.46.29-3.76,3.69-3.76q22.44,0,44.88,0c1.66,0,3.16,0,3.7,2.07.11.44,1.32.51,1.71,1,1.71,2.18,3.92,3.69,3.81,7.33-.4,13.63-.16,27.28-.16,40.92v2.93L109,76.4a16.2,16.2,0,0,1-1.55-.93c-2.89-2.25-3.69-4.75-2.65-8.17,1.49-4.86,7.18-8.2,12-7a5.83,5.83,0,0,1,4.76,4.46A6.48,6.48,0,0,0,122.7,67c2.83,3.78,5.72,7.51,8.56,11.29a6.14,6.14,0,0,1,.86,5.82,10.39,10.39,0,0,1-10.48,7.11,6.66,6.66,0,0,1-5.87-4.57A41.21,41.21,0,0,0,113.72,82.4ZM95.2,61.8c0-10.41,0-20.83,0-31.24,0-1.69-.39-2.28-2.19-2.27q-22.44.1-44.89,0c-1.64,0-2.15.48-2.15,2.12q.07,31.24,0,62.49c0,1.59.41,2.18,2.1,2.17Q70.56,95,93,95.08c1.72,0,2.25-.47,2.23-2.23C95.16,82.5,95.2,72.15,95.2,61.8ZM49.07,96.43l-.27.87a8.69,8.69,0,0,0,2,.48c15,0,30,0,45.07.05,1.62,0,2.14-.46,2.13-2.12-.07-10.15,0-20.3,0-30.44q0-16,0-32a9.86,9.86,0,0,0-.5-2.17l-.78.15q0,1.26,0,2.52,0,29.46,0,58.91c0,3.29-.5,3.78-3.73,3.78H49.07Zm51.19-62.86-.72.14V36q0,29.86,0,59.71c0,2.8-.58,3.37-3.33,3.37H53.9c-.73,0-1.46.06-2.2.1l0,.67a11.77,11.77,0,0,0,2,.35c15,0,29.92,0,44.88.05,1.74,0,2.23-.47,2.22-2.22-.07-15.22,0-30.45,0-45.67,0-5.67,0-11.34,0-17A7.9,7.9,0,0,0,100.26,33.57Zm25,43.56A8.79,8.79,0,0,0,117.36,83c-1.29,3.84,1.1,7.09,5.17,7a8.89,8.89,0,0,0,7.87-5.63C131.81,80.45,129.4,77.06,125.27,77.13Z"/><path class="cls-2" d="M50.5,80H90.75l.12.41a6.32,6.32,0,0,1-1.59.43q-18.64,0-37.29,0a9.1,9.1,0,0,1-1.54-.26Z"/><path class="cls-2" d="M50.5,66.57H90.75l.12.41a6.37,6.37,0,0,1-1.59.43q-18.64,0-37.29,0a9.06,9.06,0,0,1-1.55-.27Z"/><path class="cls-2" d="M90.81,82.62H50.46C51.64,81.65,89,81.49,90.81,82.62Z"/><path class="cls-2" d="M50.6,49.22H90.77v.53H50.58Z"/><path class="cls-2" d="M50.59,64.53H90.8v.53H50.56Z"/><path class="cls-2" d="M90.74,84.64H50.59v-.47H90.76Z"/><path class="cls-2" d="M50.57,77.92H90.76v.46H50.57Z"/><path class="cls-2" d="M90.7,76.34H50.63v-.47h40.1Z"/><path class="cls-2" d="M90.71,69.22H50.62v-.45H90.74Z"/><path class="cls-2" d="M90.77,63H50.44C51.5,62.17,88,61.88,90.77,63Z"/><path class="cls-2" d="M50.62,60.45H90.73v.41H50.62Z"/><path class="cls-2" d="M90.77,53.82H50.46C51.51,53,88,52.7,90.77,53.82Z"/><path class="cls-2" d="M50.62,51.33h40.1v.4H50.62Z"/><path class="cls-2" d="M90.73,47.59H50.62v-.43H90.7Z"/><path class="cls-2" d="M50.57,45.1h40.2v.46H50.57Z"/><path class="cls-2" d="M83.27,71.28H50.36C51.59,70.36,81.34,70.18,83.27,71.28Z"/><path class="cls-2" d="M75.78,86.77H50.56v-.46H75.77Z"/><path class="cls-2" d="M76.65,36.86c-1.27,1-10.71,1.07-12.21.07C65.54,35.8,75.34,35.75,76.65,36.86Z"/><path class="cls-2" d="M50.6,55.4H65.88v.43H50.61Z"/><path class="cls-2" d="M74.95,39.87a34,34,0,0,1-8.77.17C67.25,38.69,73.45,38.55,74.95,39.87Z"/></g></g></svg>