<svg xmlns="http://www.w3.org/2000/svg" viewBox="0 0 168 124"><defs><style>.cls-1{fill:none;}.cls-2{fill:#fff;stroke:#333;stroke-miterlimit:10;stroke-width:2px;}</style></defs><title>dv_psp_1</title><g id="Layer_2" data-name="Layer 2"><g id="Layer_1-2" data-name="Layer 1"><rect class="cls-1" width="168" height="124"/><path class="cls-2" d="M85.72,67.52c-.83,7.34-1.58,14.23-2.39,21.11-.27,2.29-1.08,3.14-2.66,3-2.26-.27-2-1.8-2-3.19.31-8.43.68-16.85.93-25.28.11-3.72,0-7.45,0-11.17L79,51.88l-4.78,9.2a16.84,16.84,0,0,1-1.49,2.82,8.55,8.55,0,0,1-2.08,1.41c-.2-.75-.77-1.59-.54-2.23,1.53-4.29,3.22-8.54,4.88-12.79A24,24,0,0,1,76,48a8.51,8.51,0,0,1,1-1.51c3.77-4.62,15.75-4,18.26,1.2s4.32,10.64,6.34,16c.15.41-.45,1-.7,1.57-.65-.35-1.63-.56-1.91-1.07-1.92-3.48-3.69-7-5.52-10.53a4.39,4.39,0,0,0-1.3-1.63c0,.71-.15,1.43-.14,2.14q.21,12.82.46,25.63c.06,3.06.23,6.12.34,9.18.05,1.34-.29,2.5-2.13,2.58s-2.3-1-2.45-2.36C87.42,82.16,86.6,75.1,85.72,67.52Z"/><path class="cls-2" d="M85.73,42.43c-3.24,0-5.79-2.22-5.78-5s2.64-5.07,5.79-5.07,5.76,2.3,5.76,5.08S89,42.43,85.73,42.43Z"/><path class="cls-2" d="M119.53,26.41v5.15h-2V28.24l-4.16-.17V26.41Z"/><path class="cls-2" d="M51.82,31.65V26.41H57.7v1.74H54.36C52.84,29.18,55.36,31.73,51.82,31.65Z"/><path class="cls-2" d="M119.29,63.56l-.64,5.18-2.06-.15a38,38,0,0,1,.6-4.51c.09-.39,1-.62,1.61-.92Z"/><path class="cls-2" d="M53.46,73.41l2-.6,2.14,4.92-1.9.79Z"/><path class="cls-2" d="M110.92,81.49l1.7,1.08-3.8,4.3-1.61-1.15Z"/><path class="cls-2" d="M115.52,72.81l2,.56-2.15,5.11-1.94-.73Z"/><path class="cls-2" d="M119.49,58.63h-2V53.37h2Z"/><path class="cls-2" d="M51.69,63.43l2-.15.68,5.24-2.08.27Z"/><path class="cls-2" d="M71.79,92.37l-1.26,1.47L65.9,90.25l1.33-1.45Z"/><path class="cls-2" d="M80.67,98.4l-1.2,1.52-4.9-3.25,1.2-1.47Z"/><path class="cls-2" d="M95.19,95.19l1.26,1.48-4.91,3.24-1.23-1.5Z"/><path class="cls-2" d="M105.17,90.15l-4.61,3.63-1.41-1.32,4.45-3.58Z"/><path class="cls-2" d="M63.77,85.66l-1.54,1.23L58.35,82.6,60,81.48Z"/><path class="cls-2" d="M53.41,53.23v5.4H51.54V53.34Z"/><path class="cls-2" d="M109.18,28.07h-6V26.38h6Z"/><path class="cls-2" d="M98.94,26.39V28H92.87V26.39Z"/><path class="cls-2" d="M82.61,28V26.39h6L88.7,28Z"/><path class="cls-2" d="M72.34,26.38h6V28h-6Z"/><path class="cls-2" d="M117.62,44.39h1.86v5.19h-1.86Z"/><path class="cls-2" d="M51.81,44.36h1.86v5.22H51.81Z"/><path class="cls-2" d="M117.62,35.39h1.86v5.19h-1.86Z"/><path class="cls-2" d="M51.78,40.72V35.43H53.7v5.11Z"/><path class="cls-2" d="M62,28V26.41h6L68.15,28Z"/><path class="cls-2" d="M83.3,102l.9-1.2,3.82.64C85.83,103.92,85.55,103.93,83.3,102Z"/></g></g></svg>