<svg xmlns="http://www.w3.org/2000/svg" viewBox="0 0 168 139"><defs><style>.cls-1{fill:none;}.cls-2,.cls-3,.cls-5{fill:#fff;}.cls-2,.cls-5{stroke:#333;stroke-miterlimit:10;}.cls-2{stroke-width:2px;}.cls-4{fill:#333;}.cls-5{stroke-width:1.57px;}</style></defs><title>dv_paa_1</title><g id="Layer_2" data-name="Layer 2"><g id="Layer_1-2" data-name="Layer 1"><rect class="cls-1" width="168" height="139"/><path class="cls-2" d="M102.2,81.25,109,76.4a16.2,16.2,0,0,1-1.55-.93c-2.89-2.25-3.69-4.75-2.65-8.17,1.49-4.86,7.18-8.2,12-7a5.83,5.83,0,0,1,4.76,4.46A6.48,6.48,0,0,0,122.7,67c2.83,3.78,5.72,7.51,8.56,11.29a6.14,6.14,0,0,1,.86,5.82,10.39,10.39,0,0,1-10.48,7.11,6.66,6.66,0,0,1-5.87-4.57,41.21,41.21,0,0,0-2.05-4.25C109.87,85.24,101,91.32,101,92"/><path class="cls-3" d="M102,98.53A2.47,2.47,0,0,1,99.53,101H51.67L45,94.42V30.65A3.65,3.65,0,0,1,48.65,27H93.15L102,35.5Z"/><path class="cls-4" d="M102.2,81.25V78.32c0-13.64-.24-27.29.16-40.92.11-3.64-2.11-5.15-3.81-7.33-.38-.49-3.75-3.07-5.4-3.07Q70.7,27,48.26,27c-3.39,0-3.69.3-3.69,3.76q0,30.94,0,61.89a4.64,4.64,0,0,0,.09,1.76c.29.67,7.17,7.09,8.62,7.08q9.69,0,19.38,0l26.6-.18c2.36,0,3-.69,3.05-3.09,0-2-.05-4.09,0-6.13ZM46,92.9q.06-31.24,0-62.49c0-1.64.51-2.12,2.15-2.12q22.44.09,44.89,0c1.8,0,2.2.58,2.19,2.27-.07,10.41,0,20.83,0,31.24s0,20.7,0,31c0,1.76-.51,2.23-2.23,2.23q-22.44-.09-44.89,0C46.42,95.08,46,94.49,46,92.9Zm2.79,4.4.27-.87H92.93c3.24,0,3.73-.48,3.73-3.78q0-29.46,0-58.91V31.22l.78-.15a9.86,9.86,0,0,1,.5,2.17q0,16,0,32c0,10.15,0,20.3,0,30.44,0,1.66-.51,2.13-2.13,2.12-15-.05-30,0-45.07-.05A8.69,8.69,0,0,1,48.8,97.3Zm49.75,3c-15-.06-29.92,0-44.88-.05a11.75,11.75,0,0,1-2-.35l0-.67c.73,0,1.46-.1,2.2-.1H96.21c2.75,0,3.33-.57,3.33-3.37q0-29.86,0-59.71V33.71l.72-.14a7.9,7.9,0,0,1,.45,1.82c0,5.67,0,11.34,0,17,0,15.22,0,30.45,0,45.67C100.78,99.82,100.29,100.3,98.55,100.29Z"/><path class="cls-4" d="M50.5,80H90.75l.12.41a6.32,6.32,0,0,1-1.59.43q-18.64,0-37.29,0a9.1,9.1,0,0,1-1.54-.26Z"/><path class="cls-4" d="M50.5,66.57H90.75l.12.41a6.37,6.37,0,0,1-1.59.43q-18.64,0-37.29,0a9.06,9.06,0,0,1-1.55-.27Z"/><path class="cls-4" d="M90.81,82.62H50.46C51.64,81.65,89,81.49,90.81,82.62Z"/><path class="cls-4" d="M50.6,49.22H90.77v.53H50.58Z"/><path class="cls-4" d="M50.59,64.53H90.8v.53H50.56Z"/><path class="cls-4" d="M90.74,84.64H50.59v-.47H90.76Z"/><path class="cls-4" d="M50.57,77.92H90.76v.46H50.57Z"/><path class="cls-4" d="M90.7,76.34H50.63v-.47h40.1Z"/><path class="cls-4" d="M90.71,69.22H50.62v-.45H90.74Z"/><path class="cls-4" d="M90.77,63H50.44C51.5,62.17,88,61.88,90.77,63Z"/><path class="cls-4" d="M50.62,60.45H90.73v.41H50.62Z"/><path class="cls-4" d="M90.77,53.82H50.46C51.51,53,88,52.7,90.77,53.82Z"/><path class="cls-4" d="M50.62,51.33h40.1v.4H50.62Z"/><path class="cls-4" d="M90.73,47.59H50.62v-.43H90.7Z"/><path class="cls-4" d="M50.57,45.1h40.2v.46H50.57Z"/><path class="cls-4" d="M83.27,71.28H50.36C51.59,70.36,81.34,70.18,83.27,71.28Z"/><path class="cls-4" d="M75.78,86.77H50.56v-.46H75.77Z"/><path class="cls-4" d="M76.65,36.86c-1.27,1-10.71,1.07-12.21.07C65.54,35.8,75.34,35.75,76.65,36.86Z"/><path class="cls-4" d="M50.6,55.4H65.88v.43H50.61Z"/><path class="cls-4" d="M74.95,39.87a34,34,0,0,1-8.77.17C67.25,38.69,73.45,38.55,74.95,39.87Z"/><path class="cls-5" d="M124.59,78.13a7,7,0,0,0-6.3,4.48c-1,3,.88,5.45,4.12,5.39a7.07,7.07,0,0,0,6.27-4.33C129.8,80.68,127.88,78.08,124.59,78.13Z"/><path class="cls-2" d="M75,101c-2.5,1.83-6.64,4.49-8.85,6.15s-2.89,4-1.49,5.94,3.81,2,6.1.35c5-3.71,10-7.46,15.13-11.11A18.89,18.89,0,0,1,88,101C83.49,100.72,80.88,101,75,101Z"/></g></g></svg>