<svg xmlns="http://www.w3.org/2000/svg" viewBox="0 0 168 139"><defs><style>.cls-1{fill:none;}.cls-2{fill:#fff;stroke:#333;stroke-miterlimit:10;stroke-width:2px;}</style></defs><title>eviction_tenant_1</title><g id="Layer_2" data-name="Layer 2"><g id="Layer_1-2" data-name="Layer 1"><rect class="cls-1" width="168" height="139"/><path class="cls-2" d="M44.59,93.81c-4.49-2.22-6.44-5-5.6-7.88.92-3.18,3.62-4.22,9.87-3.79C50,78.33,52.93,76.65,57,78c5.42,1.74,10.72,3.84,16.13,5.8A10.8,10.8,0,0,1,73,85c-1.39,5.86,2.73,11.52,8.75,11.41,7-.13,14-.76,20.94-1.17l0-.44c-1.84,0-3.69.09-5.53,0-5.07-.3-10.14-.69-15.22-1-4-.26-6.62-3-6.49-6.77a6.47,6.47,0,0,1,7-6.15c5.59.14,11.18.36,16.4.53a67.37,67.37,0,0,1,2.86-6.27A5.68,5.68,0,0,1,107,72.35c4.52,0,9,.09,13.56,0a6.41,6.41,0,0,1,6.23,3.57,13.5,13.5,0,0,1,1.63,4.23,56.75,56.75,0,0,1,0,18,14.88,14.88,0,0,1-2.29,5.2,5.51,5.51,0,0,1-5.06,2.57c-.45,0-.91,0-1.36,0a22,22,0,0,0-13,2.89c-7.47,4.05-15.8,4.74-24.22,4.05-4.54-.37-9.06-1.15-12.88-3.72a31.49,31.49,0,0,0-9.08-3.91c-3.09-.9-6.17-1.8-9.23-2.8a18,18,0,0,1-3.85-1.71C44.91,99.16,44,96.83,44.59,93.81Z"/><path class="cls-2" d="M83,26.82c0-1.84-.06-3.65,0-5.44,0-.47.56-.92.87-1.37.26.47.72.94.75,1.43.09,1.79,0,3.6,0,5.35,7.57,2.5,10.9,6.14,10.8,11.73-.08,4.75-3.05,9.19-7,10.41-1.21-3.4-2.63-4.62-5.08-4.38-2.16.2-3.52,1.69-4,4.35-3.31-.48-6.75-5-7-9.3C72,33,75.3,29,83,26.82Zm-.41,5.38a2.24,2.24,0,0,0-1.17,3.1,3.86,3.86,0,0,0,2.49,1.78A2.29,2.29,0,0,0,86.52,35a2.47,2.47,0,0,0-1.41-2.88l-1.22,1.6Z"/><path class="cls-2" d="M80.52,60.92c0-3.84,0-7.67,0-11.51,0-2.4,1.24-3.86,3.27-3.9s3.51,1.45,3.52,3.87q0,11.68,0,23.36c0,2.32-1.38,3.81-3.4,3.82s-3.37-1.43-3.39-3.78C80.51,68.82,80.52,64.87,80.52,60.92Z"/></g></g></svg>