<svg xmlns="http://www.w3.org/2000/svg" viewBox="0 0 168 139"><defs><style>.cls-1{fill:none;}.cls-2{fill:#fff;stroke:#333;stroke-miterlimit:10;stroke-width:2px;}</style></defs><title>eviction_oo_1</title><g id="Layer_2" data-name="Layer 2"><g id="Layer_1-2" data-name="Layer 1"><rect class="cls-1" width="168" height="139"/><path class="cls-2" d="M74.33,73h2.5v39.78H48.56V66.48H38.71l-.11-.38L84.65,25.2l14.1,12.55v-8.6h16.91c0,.69,0,1.36,0,2,0,6.61,0,13.23,0,19.84a3.32,3.32,0,0,0,1.26,2.78c4.21,3.68,8.35,7.42,12.52,11.14.42.37.82.76,1.58,1.46H120.72v46.48H92.31c0-.61-.08-1.16-.08-1.71,0-11.74,0-23.49,0-35.23a3,3,0,0,1,1.35-2.68c3-2.22,5.83-4.56,8.78-6.81a3.62,3.62,0,0,0,1.59-3.19c-.06-4.27,0-8.55,0-12.83,0-2.14-1-3.31-2.61-3.27s-2.52,1.21-2.52,3.37c0,3.59,0,7.18,0,10.77,0,1.11-.41,1.51-1.37,2a22.2,22.2,0,0,1-10.6,2c-4-.19-8.09-.06-12.14,0-3.74,0-5.55,1.89-5.54,5.6,0,4.73,0,9.46,0,14.19a3.81,3.81,0,0,0,.73,2.5,3.43,3.43,0,0,0,2.58.69c1.37-.22,1.83-1.42,1.83-2.72,0-3.25,0-6.5,0-9.75C74.33,74.89,74.33,74,74.33,73ZM84.66,62.53a5.8,5.8,0,0,0,5.81-5.7,5.92,5.92,0,0,0-5.83-5.92,5.77,5.77,0,0,0-5.75,5.93A5.64,5.64,0,0,0,84.66,62.53Z"/><path class="cls-2" d="M86.44,112.78h-3.7V88h3.7Z"/></g></g></svg>