<svg xmlns="http://www.w3.org/2000/svg" viewBox="0 0 168 139"><defs><style>.cls-1{fill:none;}.cls-2{fill:#333;}</style></defs><title>eviction_landlord</title><g id="Layer_2" data-name="Layer 2"><g id="Layer_1-2" data-name="Layer 1"><rect class="cls-1" width="168" height="139"/><path class="cls-2" d="M105,40.19c2.33,1.83,4.68,3.63,7,5.48a6,6,0,0,1,2.55,5.58c-.54,4.33-5.27,6.25-9,3.65-2.08-1.44-4-3.08-6-4.62l-1.92-1.45c0,.93,0,1.52,0,2.11,0,5.52.12,11-.07,16.56a10.15,10.15,0,0,1-1.55,5c-1.41,2.14-3.72,2.25-7,.81v4.48c5.72,1.61,8.52,4.51,8.82,9A9.36,9.36,0,0,1,92,96.21c-.64-2.18-1.66-4-4.39-3.63-2.11.28-2.82,1.8-3.2,3.62a9.33,9.33,0,0,1-5.83-9.38c.25-4.54,3.36-7.72,8.81-8.94V73.46a3.92,3.92,0,0,0-.71.16c-3.21,1.35-5.77.74-8-1.93C74.46,66.52,70.18,61.37,66,56.16a2.54,2.54,0,0,0-2.26-1.08c-3.38.06-6.76-.05-10.14,0a5.23,5.23,0,0,1-5.26-3.21,10.89,10.89,0,0,1-1.26-4c-.18-3.93-.24-7.88,0-11.81a12.72,12.72,0,0,1,1.48-4.6,4.7,4.7,0,0,1,4.92-2.85c.28,0,.56,0,.84,0A58.54,58.54,0,0,0,70.39,27,30.4,30.4,0,0,1,90.1,28.42a11.74,11.74,0,0,0,5,1c6.76,0,13.52-.05,20.28,0a10.37,10.37,0,0,1,3.77.73,4.71,4.71,0,0,1,3.12,4.44,4.64,4.64,0,0,1-3.09,4.45,10.73,10.73,0,0,1-3.76.74c-3.43.1-6.87,0-10.3,0ZM86.85,62.12c0-4.22,0-8,0-11.76a5.3,5.3,0,0,0-4.22-5.22c-1.73-.35-3.94.4-4.61,2-.47,1.16-.76,3.05-.14,3.9C80.58,54.8,83.65,58.25,86.85,62.12Zm.26,20.18c-.9.67-1.61,1.56-.91,2.67a2.81,2.81,0,0,0,2,1.31,2.8,2.8,0,0,0,2-1.62c.21-.68-.44-1.62-.75-2.53l-1.23,1.39Z"/><path class="cls-2" d="M91,106.29c0,3.1,0,6.19,0,9.29,0,2.12-1,3.36-2.72,3.42s-2.85-1.2-2.87-3.27c0-6.42-.07-12.84.06-19.26A3.86,3.86,0,0,1,87,93.76a2.92,2.92,0,0,1,2.73.17,4,4,0,0,1,1.22,2.73C91.08,99.86,91,103.08,91,106.29Z"/></g></g></svg>