<svg xmlns="http://www.w3.org/2000/svg" viewBox="0 0 266.42 39.99"><defs><style>.cls-1{fill:#365c98;stroke:#15386b;stroke-miterlimit:10;stroke-width:1.01px;}.cls-2,.cls-3{fill:#fff;}.cls-3{font-size:19.25px;font-family:SourceSansPro-Light, Source Sans Pro;}.cls-4{letter-spacing:-0.03em;}.cls-5{letter-spacing:-0.02em;}.cls-6{letter-spacing:0em;}</style></defs><title>facebook</title><g id="Layer_2" data-name="Layer 2"><g id="Layer_1-2" data-name="Layer 1"><rect class="cls-1" x="0.51" y="0.51" width="265.4" height="38.98" rx="4.53" ry="4.53"/><path class="cls-1" d="M5.76.51H39.49a0,0,0,0,1,0,0v39a0,0,0,0,1,0,0H5.76A5.26,5.26,0,0,1,.51,34.23V5.76A5.26,5.26,0,0,1,5.76.51Z"/><path class="cls-2" d="M26.27,5.13H22.73c-4,0-6.54,2.63-6.54,6.71v3.09H12.64a.56.56,0,0,0-.56.56V20a.56.56,0,0,0,.56.56h3.56V31.84a.56.56,0,0,0,.56.56h4.64a.56.56,0,0,0,.56-.56V20.53H26.1a.56.56,0,0,0,.56-.56V15.49a.56.56,0,0,0-.56-.56H21.94V12.31c0-1.26.3-1.9,1.94-1.9h2.38a.56.56,0,0,0,.56-.56V5.69A.56.56,0,0,0,26.27,5.13Z"/><text class="cls-3" transform="translate(54.23 25.94)">Sign in with <tspan class="cls-4" x="94.04" y="0">F</tspan><tspan x="102.63" y="0">a</tspan><tspan class="cls-5" x="112.08" y="0">c</tspan><tspan class="cls-6" x="120.4" y="0">ebook</tspan></text></g></g></svg>