<svg xmlns="http://www.w3.org/2000/svg" viewBox="0 0 168 139"><defs><style>.cls-1{fill:none;}.cls-2{fill:#333;}</style></defs><title>family_adoption</title><g id="Layer_2" data-name="Layer 2"><g id="Layer_1-2" data-name="Layer 1"><rect class="cls-1" width="168" height="139"/><path class="cls-2" d="M85.68,83H77.85l7.81-29.36c-1.58-.44-2.45-.31-2.92,1.48-1.38,5.28-3,10.5-4.51,15.74-.6,2.05-2,2.93-3.73,2.42s-2.42-1.8-1.83-3.9c1.78-6.34,3.55-12.68,5.48-19,1.37-4.43,4.48-6.53,9.13-6.54H98.46c4.94,0,7.9,2.12,9.45,6.83.53,1.6.94,3.24,1.41,4.86a25.65,25.65,0,0,0,1.8,4.83q1.08-3.32,2.16-6.64c.54-1.66,1-3.34,1.6-5a7.94,7.94,0,0,1,8-5.75c3.21,0,6.43,0,9.64,0a8.15,8.15,0,0,1,8.37,6c1.94,6,3.81,12,5.7,18,.1.32.19.65.26,1a2.92,2.92,0,0,1-1.72,3.59,2.74,2.74,0,0,1-3.45-1.95c-1.08-3.2-2-6.43-3.05-9.66-.69-2.2-1.41-4.39-2.05-6.61-.31-1.09-.9-1.31-1.91-.87.74,2.66,1.53,5.28,2.2,7.94,1.93,7.67,1.66,15.41.68,23.18q-1.51,11.9-3,23.8a8.16,8.16,0,0,1-.37,1.81,2.43,2.43,0,0,1-2.76,1.74,2.4,2.4,0,0,1-2.14-2.28,10.92,10.92,0,0,1-.06-1.69q0-13.36,0-26.72V78.25h-2.78v1.92q0,13.36,0,26.72a14.13,14.13,0,0,1,0,1.52c-.17,1.6-1.21,2.73-2.54,2.67a2.52,2.52,0,0,1-2.57-2.42c-.77-5.69-1.59-11.38-2.29-17.08-.56-4.64-.93-9.3-1.46-13.94-.91-8.06.52-15.81,3-23.44.17-.52.32-1,.5-1.61-1.19-.46-1.72-.19-2.07,1-1.7,5.66-3.44,11.31-5.32,16.91a5.25,5.25,0,0,1-2.24,2.69c-1.46.81-3.08-.19-3.6-2-1.58-5.34-3.19-10.68-4.6-16.07-.46-1.75-1.32-1.95-3-1.56L108.34,83c-2.19,0-4.2.08-6.2,0-1.29-.07-1.62.37-1.62,1.63.05,7.55,0,15.11,0,22.67,0,2.26-1.26,3.65-3.13,3.57s-2.86-1.26-2.88-3.45c0-4,0-8,0-12q0-5.07,0-10.15c0-2.37-.05-2.41-2.77-2v1.74q0,10.82,0,21.65a12,12,0,0,1,0,1.52,3,3,0,0,1-2.92,2.76,2.93,2.93,0,0,1-3.08-2.75,32,32,0,0,1,0-3.21q0-9.89,0-19.79Z"/><path class="cls-2" d="M17,44.51c.57,0,1.12-.09,1.67-.09,4.45,0,8.91,0,13.36,0a7.76,7.76,0,0,1,5.8,2.25c3.7,3.63,7.45,7.22,11.15,10.85a3.26,3.26,0,0,1,.23,4.8,3.07,3.07,0,0,1-4.65-.22c-1.89-1.94-3.65-4-5.59-6.14l-1.15,1.28A84.44,84.44,0,0,0,44,64c2.3,2.05,6.06,1,7.6-1.88a2.08,2.08,0,0,1,2.22-1.28c3.16.06,6.31,0,9.47,0,2.73,0,4.4,1.39,4.4,3.59,0,2.36-1.66,3.84-4.35,3.84-6.71,0-13.41,0-20.12,0a7.55,7.55,0,0,1-4.83-1.65c-4-3.07-8.07-6.14-12.19-9.1a6.26,6.26,0,0,0-3.05-1c-2-.16-4,0-6.17,0Z"/><path class="cls-2" d="M29,90.56l5.1-5.45,8.33,11.72,17-22.2,6.66,7.72L42.2,109.62Z"/><path class="cls-2" d="M63.12,47.53c-.44,2.17-.87,4.14-1.22,6.12-.43,2.42-1.39,4.42-4,5.19s-4.35-.26-6-2c-2.63-2.71-5.34-5.35-8-8s-2.67-5.75,0-8.45l6-6a4.47,4.47,0,0,0,.26-.54c-.77-.67-1.7-1.4-2.52-2.23-1.33-1.35-1.34-2.84-.12-4s2.59-1,3.88.2,2.77,2.65,4.1,4c1.71,1.78,1.69,2.87,0,4.62-1.41,1.45-2.84,2.88-4.19,4.24l5.44,5.41c.2-.78.39-1.67.66-2.54.61-1.94,1.77-2.65,3.72-2.16q4.83,1.21,9.63,2.55a2.52,2.52,0,0,1,2.05,3.29c-.41,1.65-1.65,2.32-3.52,1.86S65.28,48.09,63.12,47.53Z"/><path class="cls-2" d="M119.26,40.66c1.24-3.21,2.19-6.34,3.64-9.22a5.64,5.64,0,0,1,9.94-.11,95.18,95.18,0,0,1,3.84,9.33Z"/><path class="cls-2" d="M86.17,34.91a6.82,6.82,0,0,1,13.63.27,6.81,6.81,0,0,1-13.63-.27Z"/><path class="cls-2" d="M44.24,35.44a6.06,6.06,0,1,1-6-6A6.17,6.17,0,0,1,44.24,35.44Z"/></g></g></svg>