<svg xmlns="http://www.w3.org/2000/svg" viewBox="0 0 168 139"><defs><style>.cls-1{fill:none;}.cls-2{fill:#fff;stroke:#333;stroke-miterlimit:10;stroke-width:2px;}</style></defs><title>family_1</title><g id="Layer_2" data-name="Layer 2"><g id="Layer_1-2" data-name="Layer 1"><rect class="cls-1" width="168" height="139"/><path class="cls-2" d="M47.72,78.44a24.87,24.87,0,0,0-24.87,24.87v13.78a3.61,3.61,0,0,0,3.61,3.61H55V105.91a29.29,29.29,0,0,1,9.13-21.24,24.74,24.74,0,0,0-16.43-6.24"/><path class="cls-2" d="M38.53,71.52a16.95,16.95,0,1,0-7.78-14.23,16.85,16.85,0,0,0,7.78,14.23"/><path class="cls-2" d="M84.42,84.76a21.15,21.15,0,0,0-21.15,21.15v11.18a3.61,3.61,0,0,0,3.61,3.61H102a3.61,3.61,0,0,0,3.61-3.61V105.91A21.15,21.15,0,0,0,84.42,84.76"/><path class="cls-2" d="M75.4,78A14.37,14.37,0,1,0,70,66.77,14.3,14.3,0,0,0,75.4,78"/><path class="cls-2" d="M114.14,103.31c.46,4.32,0,17.39,0,17.39h29.09a3.61,3.61,0,0,0,3.61-3.61v-17a27.51,27.51,0,0,0-27.57-27.57c-10.63.07-14.72,5.18-18.76,9.77,6.08,2.56,12.22,7.67,13.63,21"/><path class="cls-2" d="M138.08,49.07a18.81,18.81,0,1,0-18.81,18.81,18.81,18.81,0,0,0,18.81-18.81"/></g></g></svg>