<svg xmlns="http://www.w3.org/2000/svg" viewBox="0 0 168 139"><defs><style>.cls-1{fill:#333;}.cls-2{fill:none;}</style></defs><title>family_2</title><g id="Layer_2" data-name="Layer 2"><g id="Layer_1-2" data-name="Layer 1"><path class="cls-1" d="M47.72,77.45a24.87,24.87,0,0,0-24.87,24.87v13.78a3.61,3.61,0,0,0,3.61,3.61H55V104.93a29.29,29.29,0,0,1,9.13-21.24,24.74,24.74,0,0,0-16.43-6.24"/><path class="cls-1" d="M38.53,70.53A16.95,16.95,0,1,0,30.75,56.3a16.85,16.85,0,0,0,7.78,14.23"/><path class="cls-1" d="M84.42,83.78a21.15,21.15,0,0,0-21.15,21.15v11.18a3.61,3.61,0,0,0,3.61,3.61H102a3.61,3.61,0,0,0,3.61-3.61V104.93A21.15,21.15,0,0,0,84.42,83.78"/><path class="cls-1" d="M75.4,77A14.37,14.37,0,1,0,70,65.79,14.3,14.3,0,0,0,75.4,77"/><path class="cls-1" d="M114.14,102.33c.46,4.32,0,17.39,0,17.39h29.09a3.61,3.61,0,0,0,3.61-3.61v-17a27.51,27.51,0,0,0-27.57-27.57c-10.63.07-14.72,5.18-18.76,9.77,6.08,2.56,12.22,7.67,13.63,21"/><path class="cls-1" d="M138.08,48.09A18.81,18.81,0,1,0,119.27,66.9a18.81,18.81,0,0,0,18.81-18.81"/><rect class="cls-2" width="168" height="139"/></g></g></svg>