<svg xmlns="http://www.w3.org/2000/svg" viewBox="0 0 266.42 39.99"><defs><style>.cls-1{fill:#e44b34;stroke:#a02b1f;stroke-miterlimit:10;stroke-width:1.01px;}.cls-2{font-size:19.25px;font-family:SourceSansPro-Light, Source Sans Pro;}.cls-2,.cls-3{fill:#fff;}</style></defs><title>google</title><g id="Layer_2" data-name="Layer 2"><g id="Layer_1-2" data-name="Layer 1"><rect class="cls-1" x="0.51" y="0.51" width="265.4" height="38.98" rx="4.53" ry="4.53"/><path class="cls-1" d="M5.76.51H39.49a0,0,0,0,1,0,0v39a0,0,0,0,1,0,0H5.76A5.26,5.26,0,0,1,.51,34.23V5.76A5.26,5.26,0,0,1,5.76.51Z"/><text class="cls-2" transform="translate(54.23 25.94)">Sign in with Google</text><path class="cls-3" d="M23.88,7.83H18.24a8.42,8.42,0,0,0-5.81,1.84,5.56,5.56,0,0,0-2,4.12,4.86,4.86,0,0,0,5.1,4.84c.32,0,.67,0,1-.06l0,.11a2.56,2.56,0,0,0-.26,1.09,3.1,3.1,0,0,0,.87,2l.05.07h-.1a13.11,13.11,0,0,0-5.77,1.41A4.42,4.42,0,0,0,8.93,27c0,2.19,2,4.4,6.61,4.4,5.31,0,8.08-2.93,8.08-5.82,0-2.14-1.25-3.2-2.59-4.32l-1.12-.87a1.66,1.66,0,0,1-.78-1.31,2.09,2.09,0,0,1,.81-1.46l0,0c1.21-1,2.59-2,2.59-4.38A5.16,5.16,0,0,0,20.4,9.09h1.87l.06,0,1.61-1a.12.12,0,0,0-.06-.23ZM17,30.15c-3.23,0-5.41-1.51-5.41-3.76,0-1.47.89-2.54,2.64-3.17a12.41,12.41,0,0,1,3.23-.5,5,5,0,0,1,.71,0c2.26,1.61,3.35,2.46,3.35,4.07C21.56,28.88,19.83,30.15,17,30.15Zm0-12.38c-2.71,0-3.84-3.57-3.84-5.48A3.5,3.5,0,0,1,13.85,10,2.85,2.85,0,0,1,16,9c2.49,0,3.87,3.35,3.87,5.67a3.16,3.16,0,0,1-.77,2.25A3.15,3.15,0,0,1,17,17.77Z"/><path class="cls-3" d="M31.77,18.86h-3v-3a.12.12,0,0,0-.12-.12H27.4a.12.12,0,0,0-.12.12v3h-3a.12.12,0,0,0-.12.12v1.29a.12.12,0,0,0,.12.12h3v3a.12.12,0,0,0,.12.12h1.28a.12.12,0,0,0,.12-.12v-3h3a.12.12,0,0,0,.12-.12V19A.12.12,0,0,0,31.77,18.86Z"/></g></g></svg>