<svg xmlns="http://www.w3.org/2000/svg" viewBox="0 0 168 139"><defs><style>.cls-1{fill:none;}.cls-2{fill:#fff;stroke:#333;stroke-miterlimit:10;stroke-width:2px;}</style></defs><title>guardianship_1</title><g id="Layer_2" data-name="Layer 2"><g id="Layer_1-2" data-name="Layer 1"><rect class="cls-1" width="168" height="139"/><path class="cls-2" d="M127.45,121.82c-9.91,0-19.33.38-28.69-.15-5.23-.3-7-6.67-3.27-10.63,4.75-5,9.74-9.81,14.62-14.7.9-.9,1.84-1.76,2.66-2.73,1.72-2,2.45-4.26.28-6.38s-4.4-1.44-6.34.46c-3.93,3.85-8.18,7.45-11.6,11.72-4.73,5.9-16.36,6.06-21.52.12-3.51-4-7.54-7.61-11.31-11.42-2-2-4.2-3.29-6.59-1s-1.43,4.82.73,7c5.2,5.17,10.35,10.4,15.58,15.54,2.39,2.34,3.93,4.92,2.6,8.29S70.32,122,67,122c-8.18-.1-16.36-.06-24.54-.1a10,10,0,0,1-1.87-.54C43,110.84,44.48,100,48.22,89.94,52.8,77.68,62.79,70.78,76,69.6c9-.8,18.08-1.36,26.61,2.62,9.73,4.54,16.47,11.81,19,22.38C123.78,103.46,125.47,112.43,127.45,121.82Zm-43.19-47A11.6,11.6,0,0,0,72.33,86.37a11.86,11.86,0,1,0,23.71.2A11.74,11.74,0,0,0,84.26,74.78Z"/><path class="cls-2" d="M103,44.73a19,19,0,0,1-19.06,19,19,19,0,0,1,0-38A18.91,18.91,0,0,1,103,44.73Z"/></g></g></svg>