<svg xmlns="http://www.w3.org/2000/svg" viewBox="0 0 168 139"><defs><style>.cls-1{fill:none;}.cls-2{fill:#333;}</style></defs><title>guardianship_child</title><g id="Layer_2" data-name="Layer 2"><g id="Layer_1-2" data-name="Layer 1"><rect class="cls-1" width="168" height="139"/><path class="cls-2" d="M98.79,113.56a31.32,31.32,0,0,1-3.76,0c-1.66-.21-2.19-1.49-2.47-3-1.3-6.8-2.66-13.6-3.93-20.41-.22-1.16-.49-1.86-1.87-1.83s-2.16.07-2.55,1.75c-1.5,6.56-3.23,13.08-4.85,19.61-.72,2.9-2.19,3.7-6.43,3.3,0-1.65-.07-3.34,0-5q.71-15.16,1.48-30.31c.24-4.83.43-9.66.7-14.49.24-4.39-1.48-7.4-5.58-9.21-4.65-2-9.36-4-14-6-3.64-1.56-5.64-4.5-5.41-8.19,1.79.46,3.53.9,5.26,1.37C62.29,43,69.2,45,76.15,46.79c8,2.06,15.87,1.18,23.7-1.13,6.58-1.95,13.21-3.72,19.83-5.57.41-.11.83-.18,1.36-.3a6.44,6.44,0,0,1-2.25,5.69,17.37,17.37,0,0,1-4.21,2.9c-3.59,1.77-7.29,3.32-10.91,5-3.91,1.84-6.1,4.75-6,9.29.42,16.16.75,32.32,1.11,48.48C98.81,111.93,98.79,112.67,98.79,113.56Z"/><path class="cls-2" d="M86.79,24a49.42,49.42,0,0,1,6.67,2.44c2.63,1.39,3.42,3.75,2.76,6.63a6,6,0,0,0-.27,1.11C95.7,42.77,84.13,44.29,79.15,40a8.41,8.41,0,0,1-2.4-4.15c-.63-2.46-2.08-5.06.1-7.57,2.34-2.7,5.44-3.56,8.81-3.82.32,0,.64,0,1,0Z"/></g></g></svg>