<svg xmlns="http://www.w3.org/2000/svg" viewBox="0 0 168 139"><defs><style>.cls-1{fill:none;}.cls-2{fill:#333;}</style></defs><title>guardianship_pg</title><g id="Layer_2" data-name="Layer 2"><g id="Layer_1-2" data-name="Layer 1"><rect class="cls-1" width="168" height="139"/><path class="cls-2" d="M50.8,112.63c0-.85,0-1.67,0-2.5,0-9.53,0-19.06,0-28.59,0-1.49-.23-2.25-2-2.5-3.21-.44-5.87-3.68-6-7.52-.19-5.92-.24-11.86,0-17.78.19-4.63,3.77-7.69,8.46-7.74,3.74,0,7.49-.13,11.22,0a5.33,5.33,0,0,0,4.54-2c5.18-5.6,10.46-11.09,15.72-16.61,3.07-3.22,4.9-3.22,7.9,0,5.43,5.75,10.82,11.53,16.32,17.21a4.91,4.91,0,0,0,3.05,1.33C114,46.08,118,46,122,46c5.21,0,8.61,3.41,8.66,8.63s0,10.73,0,16.1c0,4.51-2.29,7.4-6.72,8.44-1.44.34-1.27,1.28-1.27,2.24q0,14.4,0,28.81c0,.77,0,1.53,0,2.46H106.88c-.06-.9-.16-1.78-.16-2.66q0-25.95,0-51.89a4.37,4.37,0,0,0-.65-2.74C99.73,48.62,93.34,42,86.64,34.92c-1,1.13-1.91,2.18-2.86,3.18-5.25,5.53-10.55,11-15.72,16.61A5.37,5.37,0,0,0,66.76,58c-.08,17.3-.06,34.59-.06,51.89,0,.84,0,1.68,0,2.72Z"/><path class="cls-2" d="M82.86,112.82V92.91l-3.12-.29c0-5-.19-9.95.07-14.86.16-3,3.19-5.63,6.05-5.94a7,7,0,0,1,7.35,4.53,10.43,10.43,0,0,1,.86,3.46c.1,4.22,0,8.44,0,12.77l-3.27.3v19.94Z"/><path class="cls-2" d="M50.8,35.83a8,8,0,1,1,15.91.29,8,8,0,1,1-15.91-.29Z"/><path class="cls-2" d="M122.65,35.83a8,8,0,1,1-15.91.09,8,8,0,1,1,15.91-.09Z"/><path class="cls-2" d="M79.62,62.63a7.13,7.13,0,1,1,14.22.1,7.26,7.26,0,0,1-7.16,7.55C82.69,70.26,79.6,66.91,79.62,62.63Z"/></g></g></svg>