<svg xmlns="http://www.w3.org/2000/svg" viewBox="0 0 168 139"><defs><style>.cls-1{fill:none;}.cls-2{fill:#333;}</style></defs><title>guardianship_parent</title><g id="Layer_2" data-name="Layer 2"><g id="Layer_1-2" data-name="Layer 1"><rect class="cls-1" width="168" height="139"/><path class="cls-2" d="M96.82,76.71c-12,3.89-17.4,15.73-11.42,28.24-2.95.5-5.79,1.15-8.66,1.43-11.11,1.08-22.13.61-32.9-2.58a36.24,36.24,0,0,1-7.46-3.17C27.74,95.75,25,82.89,30.45,73.86c3.17-5.3,8.29-7.42,13.77-9,.48-.14,1.46.63,1.9,1.21A26.53,26.53,0,0,0,61.38,76.51c9.09,2.22,19.45-1.84,25.38-10.25,1.07-1.52,2-1.9,3.55-1.13a2,2,0,0,0,.41.16c3.45.83,6,2.2,5.36,6.56C95.84,73.36,96.53,75,96.82,76.71Z"/><path class="cls-2" d="M87.68,49.74c-.13,11.18-7.79,20.75-18.28,22.55-5.89,1-11-.85-15.5-4.62a23.54,23.54,0,0,1-3.77-31.95c5.08-6.82,11.94-10,20.39-8.19,9.12,1.94,14.26,8.17,16.46,17A45.3,45.3,0,0,1,87.68,49.74Z"/><path class="cls-2" d="M132.53,81.1c12.19,2.94,13.76,15.26,8.91,22a13.8,13.8,0,0,1-4.65,4.14c-6.76,3.44-14.14,4.17-21.6,4.12-7.08,0-14.05-.89-20.53-4C90,105,86.8,98.88,87.55,93.48,88.59,86,92.69,83,98.07,81.4c.49-.14,1.47.6,1.91,1.17,4.19,5.43,9.49,8.72,16.52,8.45,6.29-.24,11.08-3.4,14.85-8.27C131.75,82.23,132.11,81.69,132.53,81.1Z"/><path class="cls-2" d="M115.74,53.44c7,.09,13.11,5.3,14.72,12.62,2.18,9.91-4,19.33-13.72,20.23-6.46.6-11-2.86-14.12-8.29-5.28-9.19,0-21.81,10.08-24.15C113.69,53.62,114.72,53.57,115.74,53.44Z"/></g></g></svg>