<svg xmlns="http://www.w3.org/2000/svg" viewBox="0 0 49 49"><defs><style>.cls-1{fill:#4aa7db;}.cls-2{fill:#fff;}</style></defs><title>icn_chatbot</title><g id="Layer_2" data-name="Layer 2"><g id="Layer_1-2" data-name="Layer 1"><rect class="cls-1" width="49" height="49" rx="24.5" ry="24.5"/><path class="cls-2" d="M24.74,10.5A13.75,13.75,0,0,0,12.91,31.28L10.5,38.5l7.84-2.06a13.76,13.76,0,1,0,6.4-25.94ZM18.24,26A1.79,1.79,0,1,1,20,24.2,1.79,1.79,0,0,1,18.24,26Zm6.56,0a1.79,1.79,0,1,1,1.79-1.79A1.79,1.79,0,0,1,24.8,26Zm6.55,0a1.79,1.79,0,1,1,1.79-1.79A1.79,1.79,0,0,1,31.35,26Z"/></g></g></svg>