<svg xmlns="http://www.w3.org/2000/svg" viewBox="0 0 47 47"><defs><style>.cls-1{fill:none;}</style></defs><title>icn_doc</title><g id="Layer_2" data-name="Layer 2"><g id="Layer_1-2" data-name="Layer 1"><path d="M32,24V9.7H10.53V36.47h9.85a1.29,1.29,0,0,1,0,2.57H9.25A1.29,1.29,0,0,1,8,37.76V8.41A1.29,1.29,0,0,1,9.25,7.13h24a1.29,1.29,0,0,1,1.29,1.29V24A1.29,1.29,0,1,1,32,24Zm6.62,3.13a1.29,1.29,0,0,0-1.82.11l-7,7.84-3.53-3.41a1.29,1.29,0,0,0-1.78,1.86l4.5,4.33a1.26,1.26,0,0,0,.9.36h0a1.28,1.28,0,0,0,.9-.43L38.66,29A1.29,1.29,0,0,0,38.57,27.17ZM27.24,14.62H15.67a1.29,1.29,0,1,0,0,2.57H27.24a1.29,1.29,0,1,0,0-2.57ZM28.52,23a1.29,1.29,0,0,0-1.29-1.29H15.67a1.29,1.29,0,0,0,0,2.57H27.24A1.29,1.29,0,0,0,28.52,23ZM15.67,28.55a1.29,1.29,0,0,0,0,2.57H19.1a1.29,1.29,0,1,0,0-2.57Z"/><rect class="cls-1" width="47" height="47"/></g></g></svg>