<svg xmlns="http://www.w3.org/2000/svg" viewBox="0 0 168 139"><defs><style>.cls-1{fill:none;}.cls-2{fill:#fff;stroke:#333;stroke-miterlimit:10;stroke-width:2px;}</style></defs><title>icn_login</title><g id="Layer_2" data-name="Layer 2"><g id="Layer_1-2" data-name="Layer 1"><rect class="cls-1" width="168" height="139"/><path class="cls-2" d="M58.19,68.4c12.4,22.44,40.53,22.26,52.06,1.82a44.75,44.75,0,0,1,12.14,16.47,52.39,52.39,0,0,1,4.39,19.44c.13,3.53-1.14,4.9-4.59,4.9H47.36c-3.53,0-4.72-1.23-4.66-4.81.18-10.44,2.37-20.34,8.27-29.1C53,74.09,55.64,71.45,58.19,68.4Z"/><path class="cls-2" d="M107.7,52.76c-.1,7.9-2.76,14.74-8.68,20.1a21,21,0,0,1-29-.25C59.65,63,58.78,45.49,68.13,34.89c10-11.38,26.31-10.31,34.87,2.3A26.92,26.92,0,0,1,107.7,52.76Z"/></g></g></svg>