<svg xmlns="http://www.w3.org/2000/svg" viewBox="0 0 47 47"><defs><style>.cls-1{fill:none;}</style></defs><title>icn_cal</title><g id="Layer_2" data-name="Layer 2"><g id="Layer_1-2" data-name="Layer 1"><path d="M37.86,7.56h-3.8V5.94a.54.54,0,0,0-.54-.54h-3.8a.54.54,0,0,0-.54.54V7.56H17.23V5.94a.54.54,0,0,0-.54-.54h-3.8a.54.54,0,0,0-.54.54V7.56H8.54A.54.54,0,0,0,8,8.11V37.42a.54.54,0,0,0,.54.54H37.86a.54.54,0,0,0,.54-.54V8.11A.54.54,0,0,0,37.86,7.56Zm-7.6-1.09H33V9.74H30.26V6.48Zm-16.83,0h2.71V9.74H13.43V6.48ZM9.09,8.65h3.26v1.63a.54.54,0,0,0,.54.54h3.8a.54.54,0,0,0,.54-.54V8.65H29.17v1.63a.54.54,0,0,0,.54.54h3.8a.54.54,0,0,0,.54-.54V8.65h3.26v4.89H9.09Zm0,28.23V14.62H37.31V36.88Z"/><path d="M27.54,17.88H12.89V33.62H33.51V17.88h-6ZM23.74,19h3.8v3.8h-3.8Zm3.8,8.69h-3.8v-3.8h3.8Zm-8.69-3.8h3.8v3.8h-3.8Zm0-4.89h3.8v3.8h-3.8ZM14,19h3.8v3.8H14Zm0,4.89h3.8v3.8H14Zm3.8,8.69H14v-3.8h3.8Zm4.89,0h-3.8v-3.8h3.8Zm4.89,0h-3.8v-3.8h3.8Zm4.89,0h-3.8v-3.8h3.8Zm0-4.89h-3.8v-3.8h3.8Zm0-8.69v3.8h-3.8V19Z"/><rect class="cls-1" width="47" height="47"/></g></g></svg>