<svg xmlns="http://www.w3.org/2000/svg" viewBox="0 0 47 47"><defs><style>.cls-1{fill:none;}</style></defs><title>icn_tasks</title><g id="Layer_2" data-name="Layer 2"><g id="Layer_1-2" data-name="Layer 1"><g id="_77_Essential_Icons" data-name="77 Essential Icons"><path id="Tick" d="M23.5,4.5A17.5,17.5,0,1,0,41,22,17.49,17.49,0,0,0,23.5,4.5Zm0,33.16A15.66,15.66,0,1,1,39.16,22,15.64,15.64,0,0,1,23.5,37.66ZM34,16.06a.89.89,0,0,0-1.29,0L21,27.85l-4.93-4.93a.91.91,0,1,0-1.29,1.29l5.57,5.57a.89.89,0,0,0,1.29,0L34,17.35A.89.89,0,0,0,34,16.06Z"/></g><rect class="cls-1" width="47" height="47"/></g></g></svg>