<svg xmlns="http://www.w3.org/2000/svg" viewBox="0 0 134 134"><defs><style>.cls-1{fill:#fff;stroke:#333;stroke-miterlimit:10;stroke-width:2px;}.cls-2{fill:none;}</style></defs><title>icn_checklist</title><g id="Layer_2" data-name="Layer 2"><g id="Layer_1-2" data-name="Layer 1"><path class="cls-1" d="M97.23,29.81H88A8.78,8.78,0,0,0,79.69,24H76.27a8.77,8.77,0,0,0-16.54,0H56.31A8.78,8.78,0,0,0,48,29.81H38.77A8.78,8.78,0,0,0,30,38.57v70.54a8.78,8.78,0,0,0,8.77,8.77H97.23a8.78,8.78,0,0,0,8.77-8.77V38.57A8.78,8.78,0,0,0,97.23,29.81ZM53.38,32.73a2.93,2.93,0,0,1,2.92-2.92h5.85a2.92,2.92,0,0,0,2.92-2.92,2.92,2.92,0,0,1,5.85,0,2.92,2.92,0,0,0,2.92,2.92h5.85a2.93,2.93,0,0,1,2.92,2.92v2.92H53.38Zm46.77,76.39A2.93,2.93,0,0,1,97.23,112H38.77a2.93,2.93,0,0,1-2.92-2.92V38.57a2.93,2.93,0,0,1,2.92-2.92h8.77v2.92a2.92,2.92,0,0,0,2.92,2.92H85.54a2.92,2.92,0,0,0,2.92-2.92V35.65h8.77a2.93,2.93,0,0,1,2.92,2.92Z"/><path class="cls-1" d="M64.22,69.05a2.92,2.92,0,0,0-4.13,0l-9.63,9.63L46.68,74.9A2.92,2.92,0,1,0,42.55,79l5.85,5.85a2.92,2.92,0,0,0,4.13,0L64.22,73.18A2.92,2.92,0,0,0,64.22,69.05Z"/><path class="cls-1" d="M64.22,48.59a2.92,2.92,0,0,0-4.13,0l-9.63,9.63-3.78-3.78a2.92,2.92,0,1,0-4.13,4.13l5.85,5.85a2.92,2.92,0,0,0,4.13,0L64.22,52.72A2.92,2.92,0,0,0,64.22,48.59Z"/><path class="cls-1" d="M64.22,89.51a2.92,2.92,0,0,0-4.13,0l-9.63,9.63-3.78-3.78a2.92,2.92,0,0,0-4.13,4.13l5.85,5.85a2.92,2.92,0,0,0,4.13,0L64.22,93.65A2.92,2.92,0,0,0,64.22,89.51Z"/><path class="cls-1" d="M91.38,53.58H73.85a2.92,2.92,0,1,0,0,5.85H91.38a2.92,2.92,0,1,0,0-5.85Z"/><path class="cls-1" d="M91.38,94.5H73.85a2.92,2.92,0,1,0,0,5.85H91.38a2.92,2.92,0,1,0,0-5.85Z"/><path class="cls-1" d="M91.38,74H73.85a2.92,2.92,0,1,0,0,5.85H91.38a2.92,2.92,0,1,0,0-5.85Z"/><path class="cls-1" d="M60.09,69.05l-9.63,9.63L46.68,74.9A2.92,2.92,0,1,0,42.55,79l5.85,5.85a2.92,2.92,0,0,0,4.13,0L64.22,73.19a2.92,2.92,0,0,0-4.13-4.13Z"/><path class="cls-1" d="M60.09,48.59l-9.63,9.63-3.78-3.78a2.92,2.92,0,0,0-4.13,4.13l5.85,5.85a2.92,2.92,0,0,0,4.13,0L64.22,52.72a2.92,2.92,0,0,0-4.13-4.13Z"/><path class="cls-1" d="M60.09,89.51l-9.63,9.63-3.78-3.78a2.92,2.92,0,1,0-4.13,4.13l5.85,5.85a2.92,2.92,0,0,0,4.13,0L64.22,93.65a2.92,2.92,0,0,0-4.13-4.13Z"/><path class="cls-1" d="M91.38,53.58H73.85a2.92,2.92,0,1,0,0,5.85H91.38a2.92,2.92,0,0,0,0-5.85Z"/><path class="cls-1" d="M91.38,94.5H73.85a2.92,2.92,0,1,0,0,5.85H91.38a2.92,2.92,0,0,0,0-5.85Z"/><path class="cls-1" d="M91.38,74H73.85a2.92,2.92,0,1,0,0,5.85H91.38a2.92,2.92,0,0,0,0-5.85Z"/><rect class="cls-2" width="134" height="134"/></g></g></svg>