<svg xmlns="http://www.w3.org/2000/svg" viewBox="0 0 47 47"><defs><style>.cls-1{fill:none;}</style></defs><title>icn_pencil</title><g id="Layer_2" data-name="Layer 2"><g id="Layer_1-2" data-name="Layer 1"><path d="M38.48,7.84a5.22,5.22,0,0,0-7.37,0L10.22,28.73l0,0,0,0a.56.56,0,0,0-.07.14l0,0v0l-2,8.6a.57.57,0,0,0,0,.12v0a.58.58,0,0,0,0,.19l0,0a.58.58,0,0,0,.11.17.58.58,0,0,0,.41.17l.13,0,8.6-2,0,0,.06,0,.12-.07,0,0h0L38.48,15.22a5.22,5.22,0,0,0,0-7.37m-.82.82A4.06,4.06,0,0,1,38,14L32.37,8.29a4.06,4.06,0,0,1,5.29.38m-2.87,8.6-5.73-5.73.82-.82,5.73,5.73ZM10.87,35.45a.58.58,0,0,0-.82,0l-.44.44,1.48-6.21,2.56-.28-.33,3a.6.6,0,0,0,0,.06.63.63,0,0,0,0,.06s0,0,0,.05a.59.59,0,0,0,0,.1l.06.1.06.07.09.08.08,0,.12,0,.06,0H14l3-.33-.28,2.56L10.44,36.7l.44-.44a.58.58,0,0,0,0-.82m7.27-3.17,13-13a.58.58,0,1,0-.82-.82l-13,13-2.76.31L14.87,29l13-13a.58.58,0,0,0-.82-.82l-13,13-1.84.2,16-16L34,18.08l-16,16ZM36.43,15.63,30.69,9.89l.82-.82,5.73,5.73Z"/><rect class="cls-1" width="47" height="47"/></g></g></svg>