<svg xmlns="http://www.w3.org/2000/svg" viewBox="0 0 168 139"><defs><style>.cls-1{fill:none;}.cls-2{fill:#fff;stroke:#333;stroke-miterlimit:10;stroke-width:2px;}</style></defs><title>parentage</title><g id="Layer_2" data-name="Layer 2"><g id="Layer_1-2" data-name="Layer 1"><rect class="cls-1" width="168" height="139"/><path class="cls-2" d="M73.85,74.52H71.94c0,.54,0,1,0,1.52q0,16.61,0,33.21a4.28,4.28,0,0,1-3.08,4.28A4.79,4.79,0,0,1,63.38,112a5.58,5.58,0,0,1-.83-2.83q0-28.85.05-57.7c0-.42,0-.83,0-1.25,0-.74,0-1.36-1.07-1.35s-1,.64-1,1.38q0,10.24,0,20.48c0,1.35-.21,2.59-1.48,3.37a3.29,3.29,0,0,1-5.14-2.77c-.07-4.43,0-8.86,0-13.28,0-3.27,0-6.55,0-9.82a9.25,9.25,0,0,1,9.34-9.6q9.68-.14,19.37,0c5.37.08,9.17,3.92,9.27,9.52.14,7.75.06,15.5,0,23.25a3.16,3.16,0,0,1-3.28,3.34,3.06,3.06,0,0,1-3.2-3.38c0-6.87,0-13.75,0-20.62,0-.41.1-.93-.11-1.21A1.47,1.47,0,0,0,84.13,49c-.27,0-.64.4-.74.69a3.9,3.9,0,0,0,0,1.23c0,19.1,0,38.19,0,57.29a7.28,7.28,0,0,1-1,3.75,4.68,4.68,0,0,1-5.46,1.51c-2-.69-3-2.21-3-4.62q0-16.4,0-32.8C73.85,75.6,73.85,75.1,73.85,74.52Z"/><path class="cls-2" d="M99.53,69.81l-1.18-.06a6.51,6.51,0,0,0-.09.73q0,6.78,0,13.56c0,.46.13,1.06-.1,1.35a4.08,4.08,0,0,1-1.84,1.54c-1,.23-1.71-.56-1.93-1.56a8.43,8.43,0,0,1-.12-1.79q0-7,0-14c0-4.81,2.33-7.11,7.15-7.11h9.13c3.76,0,6.24,2.05,6.38,5.82.21,5.62.1,11.25.07,16.88a1.82,1.82,0,0,1-1.91,2c-1.22,0-1.82-.75-2-1.9a12.14,12.14,0,0,1,0-1.38c0-4.2,0-8.4,0-12.59a5.32,5.32,0,0,0-.55-1.58,5,5,0,0,0-.58,1.57q0,19.17,0,38.34a11.28,11.28,0,0,1-.09,1.93,2.74,2.74,0,0,1-2.73,2.28,2.67,2.67,0,0,1-2.61-2.24,9.74,9.74,0,0,1-.12-1.79q0-10.52,0-21a3.8,3.8,0,0,0,0-1.1c-.07-.24-.38-.4-.58-.6-.19.2-.46.38-.54.61a3.22,3.22,0,0,0,0,1q0,10.52,0,21a8.39,8.39,0,0,1-.21,2.05,2.69,2.69,0,0,1-2.87,2.1,2.81,2.81,0,0,1-2.5-2.55,13.73,13.73,0,0,1,0-1.52q0-19.17,0-38.34Z"/><path class="cls-2" d="M72.47,37a9.1,9.1,0,0,1-6.3-2.47A7,7,0,0,1,66.69,24a9,9,0,0,1,11.77.48,6.62,6.62,0,0,1,1.9,7c-.91,3-3.15,4.67-6.14,5.37A14.44,14.44,0,0,1,72.47,37Z"/><path class="cls-2" d="M100.37,56.52a5,5,0,1,1,10-.07,5,5,0,1,1-10,.07Z"/></g></g></svg>