<svg xmlns="http://www.w3.org/2000/svg" viewBox="0 0 168 139"><defs><style>.cls-1{fill:#494949;}.cls-2{fill:#5b5b5b;}.cls-3{fill:#333;}.cls-4{fill:none;}</style></defs><title>smallclaims_3</title><g id="Layer_2" data-name="Layer 2"><g id="Layer_1-2" data-name="Layer 1"><g id="_Group_" data-name="&lt;Group&gt;"><polygon id="_Path_" data-name="&lt;Path&gt;" class="cls-1" points="132.93 51.04 31 51.04 31 42.88 132.93 51.04"/><polygon id="_Path_2" data-name="&lt;Path&gt;" class="cls-2" points="37.11 34.73 37.11 43.37 132.93 51.04 139.04 51.04 37.11 34.73"/><path class="cls-3" d="M26.92,51v65.24H141.08V51Zm11.21,6.12a5.1,5.1,0,1,1-5.1,5.1A5.1,5.1,0,0,1,38.13,57.15Zm0,53a5.1,5.1,0,1,1,5.1-5.1A5.1,5.1,0,0,1,38.13,110.16Zm80.58-4.08H98.08l0,0a26.62,26.62,0,0,1-4.89,2.44h0c-.56.21-1.13.4-1.7.57l-.22.06c-.52.15-1,.29-1.58.41l-.47.09c-.46.09-.92.19-1.38.25L87,110c-.37,0-.73.09-1.11.12-.53,0-1.07.05-1.6.06h-.41q-1,0-1.9-.07c-.31,0-.61-.07-.92-.1s-.67-.06-1-.11-.81-.14-1.21-.22l-.64-.12c-.47-.1-.93-.23-1.39-.36l-.4-.11c-.51-.15-1-.32-1.51-.5l-.22-.08c-.53-.2-1.06-.42-1.57-.65l-.09,0q-.81-.37-1.59-.79h0q-.79-.43-1.55-.9H49.29c0-.34.05-.67.05-1A11.21,11.21,0,0,0,38.13,93.85c-.34,0-.68,0-1,.05V73.41c.34,0,.67.05,1,.05A11.21,11.21,0,0,0,49.34,62.25c0-.34,0-.68-.05-1H69.92a26.43,26.43,0,0,0-.68,44.39l0,0a6.78,6.78,0,0,1,.66-.64,4.87,4.87,0,0,1,.76-.53l0,0h0L77.58,101a1.36,1.36,0,0,0,.76-1.22v-2A9.81,9.81,0,0,1,75,95.25a13.93,13.93,0,0,1-1.37-1.83,14.48,14.48,0,0,1-1-2A11.14,11.14,0,0,1,72,89.82c-.13-.5-.27-1.15-.4-1.86-.07-.36-.13-.73-.19-1.12a13.47,13.47,0,0,1,0-5.29c2.14-6.44,5.65-8.34,8.39-9a18.44,18.44,0,0,1,2.93-.37,9.25,9.25,0,0,1,1,0A13.33,13.33,0,0,1,92,74.84a10.25,10.25,0,0,1,1.1,1q.3.33.57.67a12,12,0,0,1,2,3.75c.14.43.25.85.34,1.25,0,.09,0,.19,0,.29a8.79,8.79,0,0,1,.06,1.22c0,.42,0,.88-.06,1.35-.17,2.49-.65,5.41-.65,5.41-1,3.59-2.93,6.46-6.36,7.94v2a1.36,1.36,0,0,0,.74,1.21l5,2.57,1.66.85a5.8,5.8,0,0,1,1.88,1.49,26.44,26.44,0,0,0-.22-44.7h20.63c0,.34-.05.67-.05,1a11.21,11.21,0,0,0,11.21,11.21c.34,0,.68,0,1-.05V93.9c-.34,0-.68-.05-1-.05a11.21,11.21,0,0,0-11.21,11.21C118.66,105.4,118.68,105.74,118.71,106.08Zm11.16,4.08a5.1,5.1,0,1,1,5.1-5.1A5.1,5.1,0,0,1,129.87,110.16Zm0-42.81a5.1,5.1,0,1,1,5.1-5.1A5.1,5.1,0,0,1,129.87,67.35Z"/></g><rect class="cls-4" width="168" height="139"/></g></g></svg>