<svg xmlns="http://www.w3.org/2000/svg" viewBox="0 0 168 139"><defs><style>.cls-1{fill:none;}.cls-2{fill:#fff;stroke:#333;stroke-miterlimit:10;stroke-width:2px;}</style></defs><title>spousalSupport-1</title><g id="Layer_2" data-name="Layer 2"><g id="Layer_1-2" data-name="Layer 1"><rect class="cls-1" width="168" height="139"/><path class="cls-2" d="M119.13,113.3h-17c-2.69,0-3-.32-3-2.92,0-3.39,0-6.78,0-10.17a8.46,8.46,0,0,1,8-8.67c6.38-.25,12.78-.13,19.17-.15,1.61,0,3.23,0,4.83.1a8.21,8.21,0,0,1,7.71,7.45c.32,4.2.19,8.44.19,12.66,0,1.67-1.3,1.7-2.51,1.71ZM112,109.15h14.09a64.31,64.31,0,0,1,.08-6.46,2.73,2.73,0,0,1,1.61-1.91c.52-.15,1.48.66,2,1.26.32.39.21,1.17.22,1.77,0,1.76,0,3.53,0,5.39h5c0-3.24.17-6.4-.05-9.53a4.58,4.58,0,0,0-4.63-4.37q-11.25,0-22.5,0c-2.17,0-4.39,1.54-4.56,3.65-.28,3.39-.07,6.82-.07,10.21h4.9c0-2.25-.12-4.37.07-6.46a2.81,2.81,0,0,1,1.45-1.9c.45-.21,1.47.3,1.92.78a3.06,3.06,0,0,1,.45,1.87C112.07,105.33,112,107.2,112,109.15Z"/><path class="cls-2" d="M52.18,113.3H35c-2.24,0-2.73-.49-2.74-2.75,0-3.5,0-7,0-10.49,0-4.67,3.17-8.3,7.84-8.5,6.21-.27,12.43-.14,18.65-.16,1.83,0,3.67-.06,5.49.1a8.17,8.17,0,0,1,7.82,8c.16,3.94.06,7.88,0,11.83,0,1.63-1.07,2-2.47,2C63.84,113.29,58,113.3,52.18,113.3Zm15.93-4.1c0-3.47.15-6.84-.05-10.2a4.2,4.2,0,0,0-4.29-3.69q-11.5-.07-23,0a4.3,4.3,0,0,0-4.39,3.62c-.26,3.4-.07,6.83-.07,10.23h5c0-2.12,0-4.11,0-6.1,0-1.35.3-2.48,1.88-2.64,1.25-.13,2,.9,2,2.67,0,2,0,4.07,0,6.06H59.25c0-.8,0-1.47,0-2.13a28.37,28.37,0,0,1,.13-4.81,2.54,2.54,0,0,1,1.8-1.67c.64,0,1.4.94,1.89,1.63.27.38.08,1.08.08,1.63,0,1.81,0,3.61,0,5.4Z"/><path class="cls-2" d="M113.46,45.29c-3.65-1.93-7-3.7-10.27-5.44-.54-.28-1.14-.44-1.68-.72a1.88,1.88,0,0,1-1-2.64,1.81,1.81,0,0,1,2.62-1c3.6,1.83,7.17,3.71,10.73,5.62a23,23,0,0,1,2.25,1.59l5.22-5.28a38.59,38.59,0,0,1,3.22-3.13,2.49,2.49,0,0,1,2.08-.49c.62.27,1,1.16,1.37,1.85a2.66,2.66,0,0,1,.05,1.15q0,10.25,0,20.49c0,2.69-.57,3.27-3.18,3.27H104.19c-1.2,0-2.42,0-3-1.34s.32-2.07,1.14-2.88C105.93,52.82,109.46,49.28,113.46,45.29Zm10.41-4.1L108.68,56.34h15.19Z"/><path class="cls-2" d="M86.35,26.17c0,2.6,0,5.21,0,7.81a2.1,2.1,0,0,0,.94,1.31c.87.59,1.87,1,2.75,1.53A8.42,8.42,0,0,1,94,45.57a8.24,8.24,0,0,1-6.12,7.16c-.87.29-1.6.42-1.59,1.67,0,1.65-.91,2.61-2.08,2.43-1.43-.22-1.88-1.2-1.78-2.55a7.55,7.55,0,0,0-.06-1c-1.15-.33-2.27-.61-3.37-1a10.1,10.1,0,0,1-5.47-4.64c-.63-1.07-1-2.18.21-3.1,1-.74,2.23-.42,3.11.89a7.94,7.94,0,0,0,4.44,3.31,7.72,7.72,0,0,0,1.14.15c0-3.73,0-7.38,0-11,0-.35-.52-.75-.87-1-1.15-.87-2.39-1.61-3.5-2.53a7,7,0,0,1-2.47-7.76c.82-3.06,3.1-4.45,6-5l.75-.15c0-.42.1-.84.12-1.27a1.82,1.82,0,0,1,1.84-2,1.65,1.65,0,0,1,1.93,1.64c0,1.33.8,1.75,1.77,2.4a18.63,18.63,0,0,1,3.81,3.59,1.82,1.82,0,0,1-.64,2.85A1.86,1.86,0,0,1,88.41,28c-.5-.69-1.06-1.34-1.6-2Zm.1,13.37v9.22a4.51,4.51,0,0,0,3.66-4.33C90.17,41.87,89.09,40.39,86.45,39.54ZM82.36,25.69c-2.06.33-2.83,1-3,2.7-.19,1.91.68,3.09,3,4Z"/><path class="cls-2" d="M119,90.28a12.61,12.61,0,1,1,12.76-12.34A12.63,12.63,0,0,1,119,90.28Zm.12-21.12a8.54,8.54,0,1,0,8.58,8.73A8.55,8.55,0,0,0,119.13,69.16Z"/><path class="cls-2" d="M64.91,77.42A12.6,12.6,0,1,1,52.2,64.73,12.62,12.62,0,0,1,64.91,77.42Zm-4.06,0a8.55,8.55,0,1,0-8.51,8.5A8.49,8.49,0,0,0,60.85,77.44Z"/><path class="cls-2" d="M47.66,57.72c-2.08,0-3.05-1.77-2-3.22a82.38,82.38,0,0,1,6.47-8,44.56,44.56,0,0,1,12.38-8.92c1.9-1,3.12-.81,3.73.49.53,1.12-.06,2.18-1.81,3A42.26,42.26,0,0,0,53,51.51c-1.37,1.59-2.53,3.38-3.85,5A7.79,7.79,0,0,1,47.66,57.72Z"/></g></g></svg>