<svg xmlns="http://www.w3.org/2000/svg" viewBox="0 0 168 139"><defs><style>.cls-1{fill:none;}.cls-2{fill:#333;}</style></defs><title>sued_1</title><g id="Layer_2" data-name="Layer 2"><g id="Layer_1-2" data-name="Layer 1"><rect class="cls-1" width="168" height="139"/><path class="cls-2" d="M63.77,100.18c-1.71.32-3.09.66-4.5.81-4.36.49-6.68-1.35-7.25-5.75a26.54,26.54,0,0,1-.13-3.41q0-24.54,0-49.08c0-7.07,1.35-8.62,8.06-10.39,11.12-2.94,22.18-6.1,33.31-9,7.17-1.9,8.65-.9,10.25,6.34a1.3,1.3,0,0,0,.42.06c10.34-2,11.65-.94,11.65,9.57q0,23.9,0,47.8c0,6.52-.94,7.77-7.21,9.63-2.17.64-4.34,1.26-6.72,1.95-1.3-3.22-.76-5.35,2.88-5.74,5.19-.56,6.3-3.42,6.19-8.36-.35-15.36-.13-30.73-.13-46.09V33.24c-3.27.77-6,1.36-8.67,2.06-9.61,2.53-19.2,5.17-28.82,7.64-2.6.67-3.89,2-3.88,4.72,0,17.5,0,35,0,52.49a14.42,14.42,0,0,0,.54,2.52l15.09-3.74c1.42,3.73.13,5.4-3.23,6-2.51.47-5,1.28-7.45,1.8C67.46,108.18,65.64,107,63.77,100.18Zm.56-5.41c0-15.73,0-31.23,0-46.73,0-6.08,1.62-8,7.49-9.52,8-2.08,15.88-4.4,23.85-6.47,2.59-.67,3.24-1.9,2-4.64-1.16.2-2.39.33-3.57.64C83.23,31,72.44,34,61.54,36.72c-3.65.9-4.71,2.67-4.68,6.25.15,16.36.06,32.72.07,49.09,0,1.35.15,2.69.26,4.5Z"/><path class="cls-2" d="M99,106l5.19-.57,1,1c-3.45,4.48-6.86,9-10.41,13.38-.31.38-1.75.32-2.32-.06-3.5-2.33-6.89-4.81-11.54-8.1,8.29-.94,6.46-6.2,6.51-10.57,0-3.69.16-7.4,0-11.08-.15-2.69.54-4.23,3.46-4.67A76.62,76.62,0,0,0,99,83.08Z"/><path class="cls-2" d="M80.7,75.19c-.7-.55-2.18-1.15-2.37-2s.7-2.72,1.48-3Q90.19,67,100.73,64.4a3.38,3.38,0,0,1,2.84,1.74,3.32,3.32,0,0,1-1.39,3C95.26,71.24,88.26,73.1,80.7,75.19Z"/><path class="cls-2" d="M101.35,44.49c.71.63,2.13,1.3,2.28,2.18a3.38,3.38,0,0,1-1.53,2.91Q91.78,52.73,81.3,55.33a3.41,3.41,0,0,1-2.91-1.64c-.29-.74.57-2.74,1.3-3C86.7,48.55,93.78,46.63,101.35,44.49Z"/><path class="cls-2" d="M101.4,54.46c.74.71,2.14,1.44,2.24,2.31A3.46,3.46,0,0,1,102,59.67q-10.41,3.13-21,5.71c-.77.19-2.31-1-2.75-1.89-.27-.56.65-2.42,1.37-2.65C86.67,58.63,93.79,56.65,101.4,54.46Z"/></g></g></svg>