<svg xmlns="http://www.w3.org/2000/svg" viewBox="0 0 168 139"><defs><style>.cls-1{fill:#333;}.cls-2{fill:none;}</style></defs><title>suing_1</title><g id="Layer_2" data-name="Layer 2"><g id="Layer_1-2" data-name="Layer 1"><path class="cls-1" d="M65.49,110.24c-.58,0-.86,0-1.14.07-10.14,1.47-11.78.06-11.79-10.16q0-26.68,0-53.35c0-7.25,1.63-9.12,8.62-11,12.07-3.25,24.08-6.74,36.15-10,7.29-2,9-.79,10.82,7,1.73-.34,3.46-.74,5.22-1,4.1-.68,6.56,1,7.35,5.09a27.3,27.3,0,0,1,.4,5.09q0,26.46,0,52.93c0,7.82-.81,8.89-8.2,11.21l-7.36,2.29c-1.49-3.75-.32-5.52,3.38-6.54,7.58-2.08,6.78-.38,6.8-9,0-16.79,0-33.58,0-50.36,0-1.68,0-3.35,0-5.59a34.41,34.41,0,0,0-4.1.55C99.88,40.66,88.14,44,76.32,47.09c-3.61.94-5.16,2.53-5.13,6.44.17,18.21.07,36.42.08,54.63,0,1.25.14,2.5.25,4.58l16.19-4c1.42,3.91.22,6-3.77,6.73-2.51.43-5,1.26-7.46,1.77C69.26,118.68,67.42,117.52,65.49,110.24Zm.37-6c0-17.2,0-33.83,0-50.46,0-7.71,1.61-9.6,9.05-11.53,8.24-2.14,16.41-4.56,24.64-6.73,2.15-.57,3.61-1.59,2.58-3.75-.34-.72-2.59-1.09-3.75-.79-12,3.09-23.84,6.45-35.81,9.51-3.54.9-4.75,2.68-4.73,6.29.14,18.2.06,36.4.08,54.6,0,1.38.17,2.75.3,4.6Z"/><path class="cls-1" d="M90.28,124.76V99.63l-5.54.79-.81-.89c1.41-2.12,2.75-4.3,4.24-6.36,7.24-9.94,7.26-9.93,17.27-2.66,1,.73,2,1.53,2.91,2.27-.28.52-.39,1-.55,1-5.26.74-5.51,4.35-5.28,8.6.28,5.24.23,10.51.11,15.76,0,1.16-.67,3-1.51,3.34C97.89,122.75,94.45,123.55,90.28,124.76Z"/><path class="cls-1" d="M83.52,80.65c-.72-.64-2.23-1.35-2.31-2.19-.1-1.09.71-3.06,1.54-3.32q11.34-3.51,22.87-6.42c.78-.2,2.69,1.09,2.78,1.84.12,1.07-.72,3-1.56,3.3C99.3,76.23,91.66,78.32,83.52,80.65Z"/><path class="cls-1" d="M106.06,46.93c.75.7,2.33,1.48,2.44,2.43a3.81,3.81,0,0,1-1.86,3.17Q95.47,56,84.12,58.85c-.82.21-2.74-.94-2.87-1.68-.18-1.08.54-3.18,1.32-3.42C90.15,51.36,97.8,49.27,106.06,46.93Z"/><path class="cls-1" d="M106,58.08c.72.63,2.31,1.37,2.45,2.32s-.88,2.93-1.77,3.21q-11.17,3.45-22.51,6.29c-.86.21-2.84-1.09-3-2a3.74,3.74,0,0,1,1.73-3.25C90.33,62.37,97.87,60.36,106,58.08Z"/><rect class="cls-2" width="168" height="139"/></g></g></svg>