<svg xmlns="http://www.w3.org/2000/svg" viewBox="0 0 168 139"><defs><style>.cls-1{fill:none;}.cls-2{fill:#fff;stroke:#333;stroke-miterlimit:10;stroke-width:2px;}</style></defs><title>traffic_1</title><g id="Layer_2" data-name="Layer 2"><g id="Layer_1-2" data-name="Layer 1"><rect class="cls-1" width="168" height="139"/><path class="cls-2" d="M140.2,51.16a6.12,6.12,0,0,0-1.62.23l-6.15,1.69L126,37.53a13.94,13.94,0,0,0-11.92-8H54.37a13.93,13.93,0,0,0-11.92,8L36.07,53.06,30,51.39a6.11,6.11,0,0,0-1.62-.23,5,5,0,0,0-5,5.28v3.62a6.48,6.48,0,0,0,6.48,6.48h.7l-1,2.51a48.57,48.57,0,0,0-3,15.45v30.9a6.48,6.48,0,0,0,6.48,6.48h8.46a6.48,6.48,0,0,0,6.48-6.48v-7.72h72.76v7.72a6.48,6.48,0,0,0,6.48,6.48h8.46a6.48,6.48,0,0,0,6.48-6.48V84.51a48.58,48.58,0,0,0-3-15.45l-1-2.51h.78a6.48,6.48,0,0,0,6.48-6.48V56.44A5,5,0,0,0,140.2,51.16ZM40.72,63,50.38,39.5a8.37,8.37,0,0,1,7.15-4.79H111a8.37,8.37,0,0,1,7.15,4.79L127.78,63c1.08,2.64-.36,4.79-3.21,4.79H43.93C41.08,67.82,39.64,65.66,40.72,63ZM62.28,92.79a2.6,2.6,0,0,1-2.59,2.59H41.34a2.6,2.6,0,0,1-2.59-2.59V84a2.6,2.6,0,0,1,2.59-2.59H59.69A2.6,2.6,0,0,1,62.28,84Zm67.3,0A2.6,2.6,0,0,1,127,95.38H108.64A2.6,2.6,0,0,1,106,92.79V84a2.6,2.6,0,0,1,2.59-2.59H127A2.6,2.6,0,0,1,129.58,84Z"/></g></g></svg>