<svg xmlns="http://www.w3.org/2000/svg" viewBox="0 0 168 139"><defs><style>.cls-1{fill:#333;}.cls-2{fill:none;}</style></defs><title>traffic_3</title><g id="Layer_2" data-name="Layer 2"><g id="Layer_1-2" data-name="Layer 1"><path class="cls-1" d="M139.91,51a6.12,6.12,0,0,0-1.62.23l-6.15,1.69-6.38-15.55a13.94,13.94,0,0,0-11.92-8H54.08a13.93,13.93,0,0,0-11.92,8L35.78,52.85l-6.07-1.67A6.11,6.11,0,0,0,28.09,51a5,5,0,0,0-5,5.28v3.62a6.48,6.48,0,0,0,6.48,6.48h.7l-1,2.51a48.57,48.57,0,0,0-3,15.45v30.9a6.48,6.48,0,0,0,6.48,6.48H41.1a6.48,6.48,0,0,0,6.48-6.48v-7.72h72.76v7.72a6.48,6.48,0,0,0,6.48,6.48h8.46a6.48,6.48,0,0,0,6.48-6.48V84.3a48.58,48.58,0,0,0-3-15.45l-1-2.51h.78a6.48,6.48,0,0,0,6.48-6.48V56.23A5,5,0,0,0,139.91,51ZM40.42,62.82l9.66-23.53a8.37,8.37,0,0,1,7.15-4.79h53.45a8.37,8.37,0,0,1,7.15,4.79l9.66,23.53c1.08,2.64-.36,4.79-3.21,4.79H43.64C40.79,67.61,39.34,65.45,40.42,62.82ZM62,92.58a2.6,2.6,0,0,1-2.59,2.59H41a2.6,2.6,0,0,1-2.59-2.59V83.77A2.6,2.6,0,0,1,41,81.18H59.4A2.6,2.6,0,0,1,62,83.77Zm67.3,0a2.6,2.6,0,0,1-2.59,2.59H108.34a2.6,2.6,0,0,1-2.59-2.59V83.77a2.6,2.6,0,0,1,2.59-2.59h18.35a2.6,2.6,0,0,1,2.59,2.59Z"/><rect class="cls-2" width="168" height="139"/></g></g></svg>