<svg xmlns="http://www.w3.org/2000/svg" viewBox="0 0 266.42 39.99"><defs><style>.cls-1{fill:#45aeee;stroke:#2282b2;stroke-miterlimit:10;stroke-width:1.01px;}.cls-2{font-size:19.25px;font-family:SourceSansPro-Light, Source Sans Pro;}.cls-2,.cls-7{fill:#fff;}.cls-3{letter-spacing:-0.04em;}.cls-4{letter-spacing:-0.02em;}.cls-5{letter-spacing:-0.01em;}.cls-6{letter-spacing:0em;}</style></defs><title>twitter</title><g id="Layer_2" data-name="Layer 2"><g id="Layer_1-2" data-name="Layer 1"><rect class="cls-1" x="0.51" y="0.51" width="265.4" height="38.98" rx="4.53" ry="4.53"/><path class="cls-1" d="M5.76.51H39.49a0,0,0,0,1,0,0v39a0,0,0,0,1,0,0H5.76A5.26,5.26,0,0,1,.51,34.23V5.76A5.26,5.26,0,0,1,5.76.51Z"/><text class="cls-2" transform="translate(54.23 25.94)">Sign in with <tspan class="cls-3" x="94.04" y="0">T</tspan><tspan x="103.36" y="0">wi</tspan><tspan class="cls-4" x="120.96" y="0">t</tspan><tspan class="cls-5" x="126.58" y="0">t</tspan><tspan class="cls-6" x="132.37" y="0">er</tspan></text><path class="cls-7" d="M31.89,13a9.56,9.56,0,0,1-2.75.75,4.8,4.8,0,0,0,2.1-2.65,9.58,9.58,0,0,1-3,1.16,4.79,4.79,0,0,0-8.15,4.36,13.58,13.58,0,0,1-9.86-5A4.79,4.79,0,0,0,11.68,18a4.76,4.76,0,0,1-2.17-.6v.06a4.79,4.79,0,0,0,3.84,4.69,4.79,4.79,0,0,1-2.16.08,4.79,4.79,0,0,0,4.47,3.32,9.66,9.66,0,0,1-7.08,2A13.6,13.6,0,0,0,29.52,16.1q0-.31,0-.62A9.72,9.72,0,0,0,31.89,13Z"/></g></g></svg>